<svg width="30" height="30" viewBox="0 0 30 30" fill="none" xmlns="http://www.w3.org/2000/svg">
<circle cx="15" cy="15" r="15" fill="#3B99FC" fill-opacity="0.1"/>
<g clip-path="url(#clip0_20_109)">
<path d="M7.91508 10.8881C11.828 7.07342 18.172 7.07342 22.0849 10.8881L22.5559 11.3472C22.7515 11.538 22.7515 11.8472 22.5559 12.0379L20.9449 13.6085C20.8471 13.7038 20.6885 13.7038 20.5907 13.6085L19.9426 12.9767C17.2129 10.3154 12.7871 10.3154 10.0574 12.9767L9.36338 13.6533C9.26556 13.7486 9.10696 13.7486 9.00913 13.6533L7.3982 12.0827C7.20256 11.892 7.20256 11.5828 7.3982 11.392L7.91508 10.8881ZM25.4165 14.1361L26.8502 15.5339C27.0459 15.7246 27.0459 16.0338 26.8502 16.2246L20.3854 22.5273C20.1898 22.718 19.8726 22.718 19.6769 22.5273C19.6769 22.5273 19.6769 22.5273 19.6769 22.5273L15.0886 18.0541C15.0397 18.0064 14.9604 18.0064 14.9115 18.0541C14.9115 18.0541 14.9115 18.0541 14.9115 18.0541L10.3232 22.5273C10.1276 22.718 9.8104 22.718 9.61475 22.5273C9.61475 22.5273 9.61475 22.5273 9.61475 22.5273L3.14975 16.2245C2.95411 16.0338 2.95411 15.7245 3.14975 15.5338L4.58349 14.136C4.77914 13.9453 5.09634 13.9453 5.29199 14.136L9.88038 18.6093C9.9293 18.657 10.0086 18.657 10.0575 18.6093C10.0575 18.6093 10.0575 18.6093 10.0575 18.6093L14.6457 14.136C14.8413 13.9453 15.1585 13.9453 15.3542 14.136C15.3542 14.136 15.3542 14.136 15.3542 14.136L19.9426 18.6093C19.9915 18.657 20.0708 18.657 20.1197 18.6093L24.708 14.1361C24.9037 13.9454 25.2209 13.9454 25.4165 14.1361Z" fill="#3B99FC"/>
</g>
<defs>
<clipPath id="clip0_20_109">
<rect width="24" height="14.7368" fill="white" transform="translate(3 8)"/>
</clipPath>
</defs>
</svg>
