<svg width="24" height="24" viewBox="0 0 24 24" fill="none" xmlns="http://www.w3.org/2000/svg">
<g clip-path="url(#clip0_3_210)">
<g clip-path="url(#clip1_3_210)">
<rect x="-4.20184" y="-12.6039" width="32.4038" height="32.4038" fill="#C4C4C4"/>
<rect x="-4.20184" y="-12.6039" width="32.4038" height="32.4038" fill="url(#paint0_linear_3_210)"/>
<rect x="-4.20184" y="-12.6039" width="32.4038" height="32.4038" fill="url(#paint1_linear_3_210)"/>
<path d="M20.0069 10.6062C20.0069 10.6062 22.7502 6.61821 24.2256 6.31837C24.2256 6.31837 19.3615 3.4473 16.1572 3.31533C12.9526 3.1831 12.285 3.19602 12.285 3.19602L11.4002 3.14979C11.4002 3.14979 10.7323 3.13688 7.528 3.26911C4.32344 3.40133 -0.540466 6.27214 -0.540466 6.27214C0.935003 6.57172 3.6783 10.56 3.6783 10.56C3.6783 10.56 -0.0879855 13.6795 -0.203172 18.659C-0.311684 23.35 -0.203172 26.415 1.27253 27.5296C4.50789 29.4222 19.69 29.6684 21.3346 29.6194C22.8793 29.5731 24.1677 25.7184 24.011 18.9454C23.8958 13.9659 20.0074 10.6062 20.0074 10.6062H20.0069Z" fill="url(#paint2_linear_3_210)"/>
<path d="M16.4424 7.79173C16.4971 7.46322 16.603 5.67297 16.603 5.67297H7.3969C7.3969 5.67297 7.50279 7.46322 7.55754 7.79173C7.34421 8.3413 7.18176 9.43813 7.18176 9.43813C7.18176 9.43813 8.52655 8.84646 10.5436 9.08845C10.6513 9.94896 10.9674 9.7483 11.2396 10.2519C11.4976 10.7297 11.9535 10.7382 12 10.7379C12.0467 10.7382 12.5023 10.7297 12.7603 10.2519C13.0325 9.74804 13.3486 9.94896 13.4563 9.08845C15.4734 8.84646 16.8182 9.43813 16.8182 9.43813C16.8182 9.43813 16.656 8.3413 16.4424 7.79173V7.79173Z" fill="url(#paint3_linear_3_210)"/>
<path d="M11.4238 10.1889V6.01877H7.0674L6.81378 9.46291L9.1188 9.82589L11.4238 10.1889Z" fill="url(#paint4_linear_3_210)"/>
<path d="M10.5363 9.02958L11.3661 6.53015C11.3661 6.53015 10.7786 7.32042 9.63808 7.38627C8.68121 7.44154 7.42759 6.36667 7.42759 6.36667L6.98492 7.13835L7.01592 9.51226L9.42321 9.67212L10.5363 9.02958Z" fill="url(#paint5_linear_3_210)"/>
<path d="M12.2765 10.1889V6.01877H16.6329L16.8865 9.46291L12.2765 10.1889Z" fill="url(#paint6_linear_3_210)"/>
<path d="M13.1515 9.02958L12.3217 6.53015C12.3217 6.53015 13.0422 7.36329 14.0497 7.38627C15.2176 7.41288 16.2602 6.36667 16.2602 6.36667L16.7029 7.13835L16.6719 9.51226L14.2646 9.67212L13.1515 9.02958V9.02958Z" fill="url(#paint7_linear_3_210)"/>
<path d="M17.5544 8.13133C17.4075 7.81109 17.4627 7.33176 17.3158 6.55053C17.1688 5.7693 16.8442 5.84419 16.8442 5.84419C16.8442 5.84419 16.0877 4.78017 16.1941 5.80313C16.3005 6.82635 16.2497 7.30155 16.1479 7.94694C16.3103 8.17756 16.3925 8.70234 16.4617 9.23255C14.3408 8.95595 13.6812 9.05358 13.1368 9.03782C13.1729 9.32423 13.0169 9.50191 12.7114 9.61865C12.6391 9.64628 12.5797 9.70697 12.5466 9.78496C12.3847 10.1685 12.0474 10.2997 11.8369 10.2984C11.6264 10.2971 11.2892 10.1612 11.1272 9.77773C11.0942 9.69948 11.035 9.63905 10.9624 9.61141C10.6569 9.49442 10.5009 9.317 10.5371 9.03059C9.85423 8.98436 7.98698 9.05358 7.24911 9.192C7.20288 9.03059 7.40949 8.13159 7.57194 7.90097C7.47044 7.25558 7.35035 6.84934 7.45676 5.82611C7.56316 4.80289 6.82995 5.83696 6.82995 5.83696C6.82995 5.83696 6.50531 5.76207 6.35835 6.5433C6.2114 7.32453 6.17447 7.92653 6.02752 8.24677C5.88056 8.56702 3.49549 13.6973 3.51563 15.4726C3.53603 17.2476 4.25504 19.7512 4.8036 20.4428C5.3519 21.1344 10.1559 23.2679 11.9898 23.2444C13.8238 23.2209 18.277 21.1344 18.8253 20.4428C19.3736 19.7512 20.2892 17.2476 20.3096 15.4726C20.33 13.6976 17.7014 8.45183 17.5544 8.13159V8.13133Z" fill="url(#paint8_radial_3_210)"/>
<path d="M17.5544 8.13133C17.4075 7.81109 17.4627 7.33176 17.3158 6.55053C17.1688 5.7693 16.8442 5.84419 16.8442 5.84419C16.8442 5.84419 16.0877 4.78017 16.1941 5.80313C16.3005 6.82635 16.2497 7.30155 16.1479 7.94694C16.3103 8.17756 16.3925 8.70234 16.4617 9.23255C14.3408 8.95595 13.6812 9.05358 13.1368 9.03782C13.1729 9.32423 13.0169 9.50191 12.7114 9.61865C12.6391 9.64628 12.5797 9.70697 12.5466 9.78496C12.3847 10.1685 12.0474 10.2997 11.8369 10.2984C11.6264 10.2971 11.2892 10.1612 11.1272 9.77773C11.0942 9.69948 11.035 9.63905 10.9624 9.61141C10.6569 9.49442 10.5009 9.317 10.5371 9.03059C9.85423 8.98436 7.98698 9.05358 7.24911 9.192C7.20288 9.03059 7.40949 8.13159 7.57194 7.90097C7.47044 7.25558 7.35035 6.84934 7.45676 5.82611C7.56316 4.80289 6.82995 5.83696 6.82995 5.83696C6.82995 5.83696 6.50531 5.76207 6.35835 6.5433C6.2114 7.32453 6.17447 7.92653 6.02752 8.24677C5.88056 8.56702 3.49549 13.6973 3.51563 15.4726C3.53603 17.2476 4.25504 19.7512 4.8036 20.4428C5.3519 21.1344 10.1559 23.2679 11.9898 23.2444C13.8238 23.2209 18.277 21.1344 18.8253 20.4428C19.3736 19.7512 20.2892 17.2476 20.3096 15.4726C20.33 13.6976 17.7014 8.45183 17.5544 8.13159V8.13133Z" fill="url(#paint9_radial_3_210)"/>
<path d="M11.4137 10.3191C11.4137 10.3191 11.8574 12.1788 9.00146 11.7563C6.14556 11.3338 7.13704 15.7944 7.13704 15.7944L7.50894 18.6236L5.78812 19.8733L3.91182 18.2641C3.91182 18.2641 3.03346 15.4093 4.16027 12.8725C5.28709 10.3356 6.36199 9.52647 7.24319 9.23231C8.12439 8.93815 10.5374 9.03035 10.5374 9.03035C10.5374 9.03035 10.5513 9.2868 10.5913 9.36041C10.6626 9.49134 10.9299 9.54532 11.0337 9.65224C11.1513 9.77336 11.4137 10.3191 11.4137 10.3191V10.3191Z" fill="url(#paint10_linear_3_210)"/>
<path d="M17.5543 8.13133C17.4073 7.81109 17.4626 7.33176 17.3157 6.55053C17.1687 5.7693 16.8441 5.84419 16.8441 5.84419C16.8441 5.84419 16.0876 4.78017 16.194 5.80313C16.3004 6.82635 16.2495 7.30155 16.1478 7.94694C16.3102 8.17756 16.3924 8.70234 16.4616 9.23255C14.3407 8.95595 13.6811 9.05358 13.1367 9.03782C13.1728 9.32423 13.0168 9.50191 12.7113 9.61865C12.639 9.64628 12.5796 9.70697 12.5465 9.78496C12.3846 10.1685 12.0473 10.2997 11.8368 10.2984C11.6263 10.2971 11.289 10.1612 11.1271 9.77773C11.0941 9.69948 11.0349 9.63905 10.9623 9.61141C10.6568 9.49442 10.5008 9.317 10.537 9.03059C9.85412 8.98436 7.98686 9.05358 7.249 9.192C7.20277 9.03059 7.40938 8.13159 7.57183 7.90097C7.47033 7.25558 7.35024 6.84934 7.45664 5.82611C7.56305 4.80289 6.82983 5.83696 6.82983 5.83696C6.82983 5.83696 6.50519 5.76207 6.35824 6.5433C6.21129 7.32453 6.17436 7.92653 6.0274 8.24677C5.88045 8.56702 4.14 13.0878 4.16015 14.8628C4.18055 16.6379 4.72885 17.8137 5.27714 18.5051C5.82544 19.1967 8.38433 21.7555 11.8368 21.7785V21.7857C15.2893 21.7628 17.8482 19.2039 18.3965 18.5123C18.9448 17.8207 19.4931 16.6451 19.5135 14.8701C19.5339 13.0951 17.701 8.45157 17.554 8.13133H17.5543Z" fill="url(#paint11_linear_3_210)"/>
<path d="M12.2914 10.3191C12.2914 10.3191 11.8477 12.1788 14.7036 11.7563C17.5595 11.3338 16.568 15.7944 16.568 15.7944L16.1961 18.6236L17.9169 19.8733L19.7932 18.2641C19.7932 18.2641 20.6716 15.4093 19.5448 12.8725C18.418 10.3356 17.3431 9.52647 16.4619 9.23231C15.5807 8.93815 13.1677 9.03035 13.1677 9.03035C13.1677 9.03035 13.1538 9.2868 13.1137 9.36041C13.0424 9.49134 12.7751 9.54532 12.6713 9.65224C12.5538 9.77336 12.2914 10.3191 12.2914 10.3191V10.3191Z" fill="url(#paint12_linear_3_210)"/>
<path d="M7.13606 6.88473C7.05445 6.86975 6.96406 6.90539 6.88916 6.93432C6.81426 6.96324 6.73652 7.0025 6.66524 7.04589C6.5937 7.08927 6.52578 7.13834 6.46199 7.19232C6.42893 7.22047 6.39716 7.24991 6.36669 7.2809C6.35145 7.2964 6.33595 7.31189 6.32201 7.32842C6.31426 7.33746 6.30755 7.34547 6.30316 7.35683C6.29928 7.36768 6.29696 7.37904 6.29618 7.39066C6.29567 7.41494 6.29541 7.41778 6.29541 7.39893C6.29205 7.41339 6.28921 7.4653 6.30935 7.4733C6.3419 7.48622 6.34164 7.47873 6.35791 7.46117C6.3654 7.45316 6.37289 7.44541 6.38038 7.43766C6.39329 7.42449 6.40672 7.41132 6.42015 7.39867C6.44933 7.37077 6.47955 7.34392 6.5108 7.31809C6.57201 7.26773 6.63683 7.22176 6.70476 7.18095C6.77268 7.14015 6.84396 7.10425 6.91654 7.07249C6.99117 7.03969 7.07537 7.01593 7.14277 6.96944C7.16008 6.95756 7.16059 6.88912 7.13632 6.88473H7.13606Z" fill="#FFC683"/>
<path d="M7.21006 7.5456C7.12948 7.54405 7.04451 7.59157 6.97452 7.62747C6.89885 7.66621 6.82628 7.71114 6.75629 7.75918C6.61295 7.85758 6.48149 7.97199 6.36398 8.10034C6.33093 8.13624 6.2989 8.17317 6.26817 8.21088C6.23382 8.25297 6.19301 8.29507 6.18165 8.34956C6.17674 8.37358 6.17235 8.44847 6.20877 8.4539C6.22839 8.457 6.24028 8.43375 6.25035 8.42032C6.26326 8.40302 6.27669 8.38572 6.29012 8.36867C6.31724 8.33458 6.34513 8.30127 6.37406 8.26872C6.42933 8.20648 6.48873 8.14786 6.55071 8.09234C6.67778 7.97818 6.81543 7.88005 6.96161 7.79224C7.04606 7.74162 7.14291 7.70159 7.21729 7.63651C7.23176 7.62359 7.23899 7.54612 7.21032 7.5456H7.21006Z" fill="#FFC683"/>
<path d="M7.13885 8.53784C7.08281 8.53965 7.03167 8.55695 6.98028 8.57813C6.92553 8.6006 6.87181 8.62513 6.8199 8.65406C6.71814 8.71062 6.61922 8.77286 6.52522 8.84181C6.33462 8.98153 6.16106 9.1432 6.00714 9.32243C5.92165 9.42186 5.83591 9.52749 5.76953 9.64112C5.75094 9.67289 5.75042 9.71679 5.76023 9.75166C5.76592 9.77206 5.78554 9.80873 5.80672 9.77955C5.87465 9.6858 5.93792 9.59025 6.01153 9.50063C6.08513 9.41101 6.167 9.32243 6.25223 9.24082C6.41959 9.0807 6.60528 8.93892 6.80311 8.81857C6.917 8.74936 7.042 8.6897 7.14376 8.60292C7.15383 8.59414 7.15874 8.53784 7.13885 8.53836V8.53784Z" fill="#FFC683"/>
<path d="M11.3366 10.5489C11.3286 10.6197 11.3165 10.6842 11.294 10.7519C11.2716 10.8195 11.2372 10.8888 11.1967 10.951C11.1096 11.085 10.9903 11.1956 10.8576 11.2836C10.7181 11.3763 10.5642 11.4443 10.402 11.4856C10.1972 11.5378 9.9854 11.5558 9.77465 11.5618C9.37951 11.5729 8.98178 11.538 8.58921 11.5972C8.25424 11.6475 7.91256 11.765 7.67082 12.0122C7.40843 12.2805 7.29143 12.6555 7.21783 13.015C7.20853 13.0605 7.19975 13.1062 7.19122 13.1516C7.18477 13.1865 7.18296 13.2358 7.20646 13.2653C7.22997 13.2947 7.2483 13.2547 7.25347 13.2343C7.34231 12.8908 7.41592 12.5321 7.65429 12.2518C7.87924 11.9876 8.22015 11.8598 8.55383 11.8043C8.94485 11.7392 9.34154 11.7712 9.73565 11.7635C10.1197 11.756 10.5169 11.7059 10.8462 11.4928C11.1236 11.3136 11.3565 11.0243 11.3793 10.6842C11.3824 10.6385 11.3808 10.593 11.3751 10.5476C11.3738 10.5383 11.3694 10.5083 11.3547 10.5089C11.34 10.5094 11.3374 10.5391 11.3364 10.5486L11.3366 10.5489Z" fill="#FFC683"/>
<path d="M10.8439 10.129C10.8137 10.2183 10.7864 10.3059 10.7375 10.3872C10.6887 10.4686 10.6221 10.5486 10.5495 10.6158C10.3948 10.7591 10.205 10.8604 10.0043 10.9234C9.51879 11.0755 9.00174 11.029 8.50432 11.1106C8.37106 11.1326 8.23882 11.1651 8.11227 11.2129C7.98572 11.2607 7.85582 11.3226 7.75535 11.4174C7.74089 11.4311 7.73676 11.5109 7.76671 11.4995C7.87725 11.4582 7.98314 11.4079 8.09652 11.374C8.2099 11.3402 8.33051 11.3159 8.44957 11.2968C8.69802 11.2565 8.9506 11.2488 9.20138 11.232C9.67607 11.2005 10.1784 11.1367 10.5464 10.8053C10.721 10.6483 10.8703 10.4226 10.8806 10.1817C10.8814 10.1638 10.8824 10.1346 10.8693 10.1199C10.8587 10.1078 10.8483 10.1153 10.8437 10.1292L10.8439 10.129Z" fill="#FFC683"/>
<path d="M5.80043 11.0285C5.72011 11.1241 5.65735 11.2302 5.59614 11.3387C5.53416 11.4484 5.47683 11.561 5.42337 11.6752C5.31205 11.9125 5.21314 12.1558 5.12946 12.4042C4.96133 12.9027 4.84743 13.4195 4.79655 13.9432C4.74697 14.4533 4.75807 14.969 4.83452 15.4757C4.91097 15.9824 5.04397 16.4525 5.2387 16.9114C5.43189 17.3669 5.68499 17.7972 6.00136 18.1784C6.03829 18.2228 6.08013 18.2639 6.12042 18.3055C6.13618 18.3217 6.15116 18.3021 6.15606 18.2869C6.16304 18.2647 6.1589 18.2383 6.14496 18.22C5.84899 17.83 5.58065 17.4243 5.37429 16.979C5.16794 16.5338 5.02744 16.0857 4.93989 15.616C4.85234 15.1462 4.82187 14.6483 4.8526 14.1625C4.88462 13.656 4.97812 13.154 5.12662 12.669C5.20203 12.4228 5.29036 12.1803 5.39108 11.9435C5.49232 11.7057 5.60983 11.4761 5.72218 11.2434C5.75239 11.1811 5.78132 11.1186 5.80921 11.0551C5.81154 11.0497 5.80921 11.0177 5.80017 11.0285H5.80043Z" fill="#FFC683"/>
<path d="M8.64173 12.2591C8.53532 12.5047 8.46507 12.7671 8.39689 13.0253C8.32871 13.2836 8.26957 13.5558 8.22101 13.8241C8.12287 14.3655 8.06554 14.914 8.04668 15.4638C8.02783 16.0165 8.04798 16.5697 8.10764 17.1195C8.16704 17.6668 8.26647 18.2094 8.40309 18.7427C8.53971 19.276 8.70862 19.7964 8.93538 20.2933C8.96327 20.3547 8.99194 20.4157 9.02112 20.4764C9.02939 20.4934 9.04514 20.4916 9.05547 20.4792C9.06787 20.4648 9.06761 20.4345 9.06064 20.418C8.85325 19.9165 8.66704 19.4056 8.5206 18.8832C8.37494 18.3638 8.26698 17.8344 8.19751 17.2995C8.1283 16.7678 8.09679 16.2311 8.10273 15.695C8.10867 15.1524 8.15516 14.6103 8.23909 14.0741C8.32355 13.5357 8.45061 13.0057 8.60376 12.483C8.62288 12.4179 8.6394 12.3523 8.65619 12.2865C8.65852 12.2779 8.65128 12.2371 8.64173 12.2591V12.2591Z" fill="#FFC683"/>
<path d="M9.84448 9.47197C9.14148 9.41438 8.42867 9.65146 7.84241 10.0296C7.22799 10.4257 6.73626 10.9879 6.40593 11.6382C6.04101 12.3565 5.87623 13.1656 5.8579 13.9675C5.83904 14.8009 5.98445 15.6312 6.23858 16.4233C6.36874 16.829 6.52577 17.2257 6.70062 17.6141C6.87288 17.9966 7.05883 18.3791 7.27422 18.7393C7.32665 18.8269 7.38166 18.9126 7.43435 18.9999C7.44571 19.0185 7.46172 19.0159 7.47257 18.9989C7.48497 18.9795 7.48083 18.9475 7.47076 18.9281C7.37056 18.7375 7.27784 18.5431 7.17866 18.3519C7.07949 18.1608 6.98884 17.9795 6.89974 17.7905C6.71998 17.4103 6.5534 17.024 6.41291 16.6275C6.14405 15.8693 5.96198 15.0762 5.94054 14.2696C5.9204 13.5024 6.04204 12.726 6.34705 12.0192C6.6345 11.3534 7.08672 10.7713 7.67247 10.3418C8.23161 9.93167 8.89819 9.67212 9.5937 9.63958C9.67841 9.63571 9.76364 9.63467 9.84861 9.63571C9.88864 9.63622 9.88864 9.47559 9.84448 9.47197V9.47197Z" fill="#FFC683"/>
<path d="M10.6741 12.3361C10.6016 12.6093 10.5765 12.8985 10.553 13.1798C10.5287 13.4685 10.5174 13.7583 10.5137 14.0478C10.5063 14.6229 10.5298 15.1981 10.552 15.7727C10.5742 16.3455 10.5972 16.9183 10.6318 17.4906C10.6664 18.0637 10.7118 18.6365 10.7792 19.2068C10.8459 19.7726 10.9308 20.3392 11.0626 20.894C11.0783 20.9603 11.0961 21.0265 11.114 21.0923C11.1183 21.1088 11.131 21.1236 11.1475 21.113C11.1641 21.1024 11.1643 21.0665 11.1612 21.0505C11.0543 20.4952 10.9523 19.94 10.8802 19.3788C10.8082 18.8176 10.7573 18.2548 10.7196 17.6905C10.6821 17.1268 10.6571 16.5625 10.6338 15.9979C10.6106 15.4334 10.5835 14.8613 10.5809 14.2924C10.5783 13.7219 10.6036 13.1506 10.6837 12.5855C10.6938 12.514 10.7015 12.4422 10.709 12.3704C10.7116 12.3448 10.6889 12.281 10.6744 12.3358L10.6741 12.3361Z" fill="#FFC683"/>
<path d="M16.4888 6.96969C16.5573 7.01566 16.6414 7.03967 16.7166 7.07273C16.7918 7.10579 16.8605 7.14039 16.9286 7.1812C16.9968 7.222 17.0616 7.26772 17.1229 7.31833C17.1541 7.34416 17.1841 7.37102 17.2135 7.39891C17.243 7.4268 17.2675 7.45857 17.2977 7.48388C17.3191 7.5017 17.331 7.44798 17.3323 7.43894C17.3367 7.40924 17.3359 7.36973 17.3176 7.34416C17.3321 7.41673 17.3372 7.43197 17.3326 7.38936C17.3313 7.37773 17.3282 7.36663 17.324 7.35578C17.3194 7.34519 17.3129 7.33745 17.3055 7.32867C17.2907 7.31188 17.275 7.29612 17.2592 7.28037C17.2287 7.24938 17.197 7.21994 17.1639 7.19179C17.1001 7.13781 17.0322 7.08874 16.9609 7.04535C16.8896 7.00197 16.815 6.96374 16.737 6.93379C16.659 6.90383 16.5717 6.86948 16.4914 6.88472C16.4663 6.88937 16.4725 6.95858 16.4891 6.96969H16.4888Z" fill="#FFC683"/>
<path d="M16.4142 7.63677C16.4813 7.69462 16.5665 7.73155 16.6427 7.77597C16.7189 7.82039 16.7873 7.863 16.856 7.91156C16.9937 8.00918 17.1223 8.121 17.2365 8.24549C17.268 8.27983 17.2985 8.31521 17.3276 8.35137C17.3434 8.37074 17.3586 8.39011 17.3736 8.41C17.3852 8.42549 17.4007 8.45777 17.4235 8.4539C17.4601 8.4477 17.4506 8.37126 17.4454 8.34827C17.4346 8.29972 17.3994 8.26227 17.369 8.22431C17.3418 8.19048 17.3137 8.15716 17.2845 8.12488C17.2272 8.06083 17.1662 7.99988 17.1022 7.94203C16.9743 7.82659 16.8315 7.72277 16.6791 7.64168C16.637 7.61947 16.5947 7.59803 16.5508 7.57995C16.5069 7.56187 16.4619 7.54457 16.4162 7.54534C16.3868 7.54586 16.3997 7.62463 16.4136 7.63651L16.4142 7.63677Z" fill="#FFC683"/>
<path d="M16.4869 8.6024C16.5804 8.68065 16.6928 8.73721 16.7976 8.79919C16.8963 8.85756 16.9913 8.92186 17.0835 8.99004C17.2705 9.12847 17.4412 9.28782 17.5915 9.46524C17.6765 9.5657 17.7491 9.6734 17.8258 9.7798C17.847 9.80924 17.8666 9.76869 17.871 9.74984C17.8792 9.71343 17.8751 9.67236 17.8562 9.63982C17.7966 9.53807 17.7209 9.44303 17.6455 9.35264C17.5701 9.26251 17.4893 9.17676 17.4043 9.09567C17.2341 8.93323 17.0458 8.79093 16.8418 8.67368C16.7865 8.64191 16.7297 8.61273 16.6708 8.58794C16.6119 8.56314 16.5533 8.53964 16.4887 8.53757C16.4683 8.5368 16.4774 8.59413 16.4869 8.60214V8.6024Z" fill="#FFC683"/>
<path d="M12.2534 10.5489C12.2309 10.7235 12.2828 10.9053 12.3667 11.0577C12.446 11.2015 12.5609 11.3255 12.6906 11.4255C12.992 11.6579 13.3675 11.7387 13.7407 11.7586C14.1439 11.78 14.5493 11.7392 14.9512 11.7868C15.2916 11.8268 15.6395 11.9291 15.8962 12.1667C16.1653 12.4156 16.258 12.7687 16.3453 13.1083C16.3562 13.1509 16.367 13.1937 16.3778 13.2364C16.3828 13.2552 16.3998 13.2911 16.4223 13.2694C16.4447 13.2477 16.4453 13.1979 16.4401 13.1708C16.3717 12.804 16.2805 12.4146 16.0452 12.115C15.8265 11.8366 15.4992 11.6886 15.1591 11.6197C14.7779 11.5424 14.389 11.5662 14.0026 11.5647C13.6162 11.5631 13.2157 11.5375 12.8719 11.3472C12.7314 11.2695 12.6007 11.1698 12.4984 11.0453C12.4509 10.9874 12.4086 10.9244 12.3758 10.857C12.3585 10.8216 12.3432 10.785 12.3316 10.7475C12.3257 10.7282 12.3125 10.6824 12.3089 10.6595C12.3053 10.6365 12.3037 10.629 12.3004 10.605C12.2978 10.5861 12.2944 10.5673 12.2924 10.5481C12.2913 10.5388 12.2867 10.5089 12.272 10.5094C12.2572 10.5099 12.2549 10.5396 12.2536 10.5492L12.2534 10.5489Z" fill="#FFC683"/>
<path d="M12.7478 10.168C12.7574 10.3849 12.8747 10.5915 13.0234 10.7447C13.1722 10.8978 13.3589 11.0133 13.5598 11.0843C14.0521 11.2576 14.5802 11.216 15.0903 11.2834C15.2251 11.3012 15.3584 11.326 15.4896 11.3611C15.6208 11.3963 15.7391 11.4528 15.8641 11.5001C15.894 11.5114 15.8855 11.4306 15.8716 11.4174C15.7809 11.3332 15.6683 11.2751 15.5544 11.2289C15.4405 11.1827 15.3264 11.1512 15.2083 11.1266C14.9692 11.0773 14.7238 11.0647 14.4805 11.0502C14.0133 11.022 13.517 10.9758 13.1389 10.6706C13.0518 10.6003 12.9738 10.5179 12.9118 10.4244C12.853 10.3359 12.8194 10.2398 12.7868 10.1393C12.7835 10.1292 12.777 10.1065 12.762 10.1148C12.7471 10.123 12.7471 10.1551 12.7476 10.1682L12.7478 10.168Z" fill="#FFC683"/>
<path d="M17.8201 11.0556C17.9278 11.2981 18.0543 11.5321 18.1646 11.7736C18.272 12.0091 18.3668 12.2503 18.4484 12.4959C18.6091 12.9789 18.7168 13.4786 18.7633 13.9856C18.8079 14.4734 18.7924 14.9669 18.7165 15.4507C18.6424 15.9228 18.5086 16.3861 18.3206 16.8256C18.1315 17.268 17.8857 17.6867 17.5931 18.0684C17.5548 18.1182 17.5195 18.1704 17.4815 18.2208C17.4678 18.2391 17.466 18.267 17.4737 18.2882C17.4794 18.3042 17.4944 18.3212 17.5102 18.3049C17.8498 17.9571 18.1101 17.5255 18.3144 17.0865C18.5236 16.6374 18.6729 16.1601 18.7617 15.6728C18.8537 15.1681 18.8828 14.6534 18.8477 14.1413C18.8116 13.617 18.7137 13.0974 18.559 12.5954C18.4815 12.3436 18.3896 12.0964 18.2844 11.8549C18.1822 11.6199 18.0701 11.3831 17.9296 11.168C17.8978 11.1194 17.8645 11.0732 17.8276 11.0285C17.8183 11.0174 17.8178 11.0507 17.8198 11.0556H17.8201Z" fill="#FFC683"/>
<path d="M14.9734 12.287C15.0426 12.552 15.1237 12.8136 15.1893 13.0796C15.2549 13.3456 15.3107 13.6039 15.3569 13.8688C15.4497 14.3998 15.5054 14.9365 15.5217 15.4752C15.538 16.0114 15.516 16.5483 15.4572 17.0813C15.3972 17.6221 15.2988 18.1585 15.1609 18.6848C15.0238 19.2076 14.8448 19.715 14.648 20.2181C14.623 20.2822 14.5971 20.346 14.571 20.4098C14.5628 20.4299 14.5599 20.4573 14.5726 20.4766C14.5829 20.4924 14.6005 20.4947 14.6095 20.4756C14.8464 19.9836 15.0289 19.4669 15.1746 18.941C15.3208 18.4132 15.428 17.8739 15.4972 17.3305C15.5664 16.7872 15.5974 16.2223 15.5876 15.6666C15.5778 15.1162 15.5302 14.5651 15.4409 14.0217C15.3528 13.4858 15.2286 12.9549 15.0561 12.4396C15.0354 12.3782 15.0116 12.3185 14.9861 12.2588C14.9765 12.2366 14.9711 12.2793 14.9729 12.287H14.9734Z" fill="#FFC683"/>
<path d="M13.7844 9.63569C14.1307 9.63078 14.4758 9.67082 14.8089 9.7674C15.1431 9.86425 15.4623 10.0138 15.7552 10.2013C16.3541 10.5848 16.8425 11.1282 17.1638 11.7622C17.5132 12.452 17.6751 13.2206 17.6894 13.9912C17.7041 14.7929 17.5532 15.5862 17.3089 16.3473C17.1816 16.7443 17.0269 17.1322 16.8554 17.5121C16.6816 17.8966 16.4848 18.2685 16.2973 18.6463C16.2503 18.7409 16.2051 18.8359 16.1563 18.9294C16.1411 18.9583 16.1658 19.0495 16.1961 18.9991C16.3058 18.8176 16.4177 18.6386 16.5171 18.4511C16.6165 18.2636 16.7103 18.0789 16.8017 17.8902C16.9866 17.5074 17.1522 17.1144 17.2939 16.7135C17.5739 15.9215 17.7524 15.0955 17.771 14.2539C17.7888 13.4504 17.6591 12.6361 17.3407 11.8955C17.0494 11.2183 16.5915 10.6204 15.999 10.1796C15.4362 9.76069 14.749 9.48177 14.0424 9.46447C13.9548 9.4624 13.8678 9.46498 13.7805 9.47196C13.7382 9.47531 13.7428 9.63647 13.7846 9.63569H13.7844Z" fill="#FFC683"/>
<path d="M12.921 12.3717C12.9504 12.654 12.9936 12.9342 13.0145 13.2175C13.0354 13.5008 13.0457 13.788 13.0481 14.0736C13.053 14.6415 13.0277 15.2092 13.0047 15.7763C12.982 16.3409 12.9582 16.9052 12.9236 17.4692C12.889 18.0325 12.843 18.5952 12.7764 19.1556C12.7095 19.7166 12.617 20.2726 12.5098 20.8273C12.4962 20.8979 12.4835 20.9689 12.4701 21.0394C12.4662 21.0598 12.4628 21.0959 12.4814 21.1112C12.5 21.1264 12.5122 21.1099 12.5171 21.0913C12.6653 20.5425 12.7531 19.9769 12.826 19.4136C12.8988 18.8504 12.9473 18.2807 12.9845 17.7125C13.022 17.1404 13.0468 16.5676 13.0692 15.9948C13.092 15.4166 13.1178 14.8378 13.1175 14.2588C13.1175 13.6818 13.0899 13.1028 12.9972 12.5326C12.9863 12.466 12.9714 12.4006 12.9543 12.3353C12.951 12.3224 12.9442 12.3084 12.9308 12.3169C12.9174 12.3255 12.9202 12.3593 12.9215 12.3714L12.921 12.3717Z" fill="#FFC683"/>
<path opacity="0.42" d="M11.8371 20.4425C14.0501 20.4425 15.8441 18.6486 15.8441 16.4357C15.8441 14.2227 14.0501 12.4288 11.8371 12.4288C9.62413 12.4288 7.83014 14.2227 7.83014 16.4357C7.83014 18.6486 9.62413 20.4425 11.8371 20.4425Z" fill="white"/>
<path opacity="0.33" d="M11.8371 21.7857C14.7919 21.7857 17.1873 19.3904 17.1873 16.4356C17.1873 13.4809 14.7919 11.0855 11.8371 11.0855C8.88225 11.0855 6.48688 13.4809 6.48688 16.4356C6.48688 19.3904 8.88225 21.7857 11.8371 21.7857Z" fill="white"/>
<path d="M18.5918 18.862C18.5918 18.862 18.6401 20.104 18.3635 20.9337C18.0869 21.7635 16.3225 24.4119 16.0456 24.7345C15.4454 24.9881 13.6597 24.6222 12.2305 24.599C11.8847 23.5396 12.8896 22.285 13.402 21.7475C13.9141 21.2101 18.5918 18.8615 18.5918 18.8615V18.862Z" fill="#062E6D"/>
<path d="M17.9487 20.081C17.9487 20.081 18.3537 19.7713 18.4278 19.027C18.5019 18.2827 18.4789 16.7161 17.9487 16.2546C17.4185 15.7931 17.0727 16.3695 17.0497 16.5769C17.0267 16.7843 17.0959 17.6895 17.0497 18.3896C17.0035 19.0898 16.8787 19.6603 17.0448 19.8478C17.2109 20.0353 17.3955 20.3578 17.9487 20.0812V20.081Z" fill="url(#paint13_linear_3_210)"/>
<path d="M16.9611 16.1764C17.1458 16.1195 17.4185 16.2311 17.557 16.6691C17.6954 17.1071 17.8325 17.6169 17.8676 18.1342C17.9028 18.6515 18.1158 19.7889 17.9978 20.1884C17.8798 20.5879 17.9103 21.4784 16.9614 21.7478C15.9663 21.7405 16.2891 20.4495 16.2891 20.4495C16.2891 20.4495 16.5407 19.5763 16.5427 18.9511C16.5448 18.3258 16.5198 17.9366 16.4965 17.4986C16.4735 17.0606 16.3351 16.369 16.9614 16.1761L16.9611 16.1764Z" fill="url(#paint14_linear_3_210)"/>
<path d="M16.842 21.9712C16.9978 21.4611 17.0169 20.6285 17.0448 19.8475C17.0727 19.0665 17.0267 17.909 16.842 17.7386C16.6576 17.5681 16.3596 17.5203 16.1044 17.7755C15.8278 18.0521 15.7816 18.8821 15.7586 19.1817C15.7356 19.4813 15.6202 20.4035 15.505 20.7031C15.3898 21.0027 14.7674 21.8098 14.9748 22.1323C15.1822 22.4552 15.2976 22.7777 15.6664 22.7547C16.0352 22.7318 16.6011 22.7596 16.842 21.9709V21.9712Z" fill="url(#paint15_linear_3_210)"/>
<path d="M15.3775 22.9329C15.3775 22.9329 15.7123 22.3862 15.8737 21.856C16.0351 21.3258 16.1503 20.957 16.0811 20.4727C16.0118 19.9885 16.0663 19.2475 15.6893 18.9513C15.3664 18.6977 14.8362 19.1819 14.7903 20.5419C14.7812 20.8105 14.1632 21.1006 13.9579 21.3513C13.7528 21.6024 13.4762 21.8097 13.4762 22.1555C13.4762 22.5013 13.5217 23.318 15.3778 22.9326L15.3775 22.9329Z" fill="url(#paint16_linear_3_210)"/>
<path d="M5.01685 18.862C5.01685 18.862 4.96855 20.1039 5.24515 20.9337C5.52175 21.7635 7.37682 24.3336 7.65342 24.6565C8.20662 24.8582 9.35157 24.5047 11.3294 24.5816C11.6752 23.5223 10.7191 22.2852 10.2067 21.7478C9.69455 21.2103 5.01685 18.862 5.01685 18.862Z" fill="#062E6D"/>
<path d="M5.66027 20.081C5.66027 20.081 5.25531 19.7713 5.18118 19.027C5.10706 18.2827 5.13005 16.7161 5.66027 16.2546C6.19048 15.7931 6.5363 16.3695 6.55929 16.5769C6.58227 16.7843 6.51306 17.6895 6.55929 18.3896C6.60552 19.0898 6.73026 19.6603 6.56419 19.8478C6.39787 20.035 6.21347 20.3578 5.66027 20.0812V20.081Z" fill="url(#paint17_linear_3_210)"/>
<path d="M6.64806 16.1764C6.4634 16.1195 6.19067 16.2311 6.05224 16.6691C5.91381 17.1071 5.77667 17.6169 5.74155 18.1342C5.70643 18.6515 5.49336 19.7889 5.61138 20.1884C5.72941 20.5879 5.69894 21.4784 6.6478 21.7478C7.6429 21.7405 7.32007 20.4495 7.32007 20.4495C7.32007 20.4495 7.06852 19.5763 7.06645 18.9511C7.06439 18.3258 7.08944 17.9366 7.11268 17.4986C7.13592 17.0606 7.2741 16.369 6.6478 16.1761L6.64806 16.1764Z" fill="url(#paint18_linear_3_210)"/>
<path d="M6.76701 21.9712C6.61128 21.4611 6.59217 20.6285 6.56427 19.8475C6.53638 19.0665 6.58235 17.909 6.76701 17.7386C6.95141 17.5681 7.24945 17.5203 7.50462 17.7755C7.78122 18.0521 7.82745 18.8821 7.85043 19.1817C7.87342 19.4813 7.98886 20.4035 8.10405 20.7031C8.21924 21.0027 8.84166 21.8098 8.63427 22.1323C8.42688 22.4552 8.31144 22.7777 7.94263 22.7547C7.57383 22.7318 7.00797 22.7596 6.76701 21.9709V21.9712Z" fill="url(#paint19_linear_3_210)"/>
<path d="M8.10481 22.8906C8.10481 22.8906 7.80625 22.3234 7.67944 21.7839C7.55264 21.2444 7.46147 20.8689 7.56193 20.3901C7.66214 19.9115 7.65594 19.1685 8.05135 18.8971C8.38993 18.6649 8.88761 19.1822 8.84551 20.5425C8.83725 20.8111 9.43513 21.1403 9.62367 21.404C9.8122 21.6677 10.0749 21.8926 10.0524 22.2377C10.0299 22.5827 9.93178 23.3947 8.10455 22.8903L8.10481 22.8906Z" fill="url(#paint20_linear_3_210)"/>
<path opacity="0.42" d="M11.8475 20.4046C14.0605 20.4046 15.8545 18.6106 15.8545 16.3977C15.8545 14.1847 14.0605 12.3908 11.8475 12.3908C9.6345 12.3908 7.84052 14.1847 7.84052 16.3977C7.84052 18.6106 9.6345 20.4046 11.8475 20.4046Z" fill="white"/>
<path opacity="0.33" d="M11.8472 21.7478C14.8021 21.7478 17.1975 19.3524 17.1975 16.3977C17.1975 13.4429 14.8021 11.0476 11.8472 11.0476C8.89239 11.0476 6.49701 13.4429 6.49701 16.3977C6.49701 19.3524 8.89239 21.7478 11.8472 21.7478Z" fill="#BDFFF1"/>
<path d="M7.99445 6.32816C7.99445 6.32816 9.12332 6.88444 9.67756 6.83847C10.2318 6.7925 11.0443 6.39014 11.0443 6.39014C11.0443 6.39014 10.6541 6.94823 10.1463 7.0864C9.63856 7.22457 8.97456 7.23955 8.83794 7.0864C8.70132 6.93326 7.9947 6.32816 7.9947 6.32816H7.99445Z" fill="#062E6D"/>
<path d="M15.6935 6.32816C15.6935 6.32816 14.5647 6.88444 14.0104 6.83847C13.4562 6.7925 12.6437 6.39014 12.6437 6.39014C12.6437 6.39014 13.0339 6.94823 13.5417 7.0864C14.0494 7.22483 14.7134 7.23955 14.85 7.0864C14.9867 6.93325 15.6933 6.32816 15.6933 6.32816H15.6935Z" fill="#062E6D"/>
<path d="M21.9216 2.99868C20.9304 2.7913 18.1179 2.26109 17.4722 1.79984C17.317 1.68905 16.9428 1.60873 16.4645 1.55088C16.2447 0.996659 15.6977 0.0715756 15.363 -0.736C14.9712 -1.68123 14.5332 -1.84264 14.4177 -2.3496C14.3026 -2.85682 13.9567 -2.81059 14.0489 -3.04122C14.1411 -3.27184 13.8183 -3.47923 13.8183 -3.47923C13.8183 -3.47923 14.7173 -3.0642 15.1094 -2.90279C15.5012 -2.74138 16.262 -2.74138 17.0459 -2.99499C16.3542 -3.80179 15.7088 -4.332 15.1094 -5.06984C14.5954 -5.70232 13.6109 -6.03805 13.1959 -6.08428C12.7553 -6.13335 12.2047 -6.13051 11.121 -6.01507C10.0373 -5.89963 9.94537 -5.50785 9.71474 -4.90843C9.48411 -4.30901 9.27672 -2.69541 8.81572 -2.30337C8.35471 -1.91134 8.1011 -1.03558 7.80125 -0.297734C7.56752 0.277408 6.99779 1.23038 6.75786 1.62294C6.50992 1.67097 6.32113 1.72934 6.22196 1.8001C5.57655 2.26109 2.76404 2.7913 1.77256 2.99894C0.781342 3.20632 -0.740356 4.10558 -0.740356 4.10558C5.48409 6.87179 11.9389 6.68739 11.9389 6.68739C11.9389 6.68739 18.2093 6.87179 24.4338 4.10558C24.4338 4.10558 22.9123 3.20658 21.9209 2.99894L21.9216 2.99868Z" fill="url(#paint21_linear_3_210)"/>
<path d="M-0.740098 4.10532C5.48435 6.87153 11.9392 6.68713 11.9392 6.68713C11.9392 6.68713 18.2096 6.87153 24.4341 4.10532C16.34 6.8426 7.95569 6.90872 -0.740356 4.10532H-0.740098Z" fill="url(#paint22_linear_3_210)"/>
<path d="M7.80157 -0.286366C7.80157 -0.286366 8.65462 0.866242 11.6285 0.843257C14.2156 0.823113 15.5245 -0.332336 15.5245 -0.332336L16.4589 1.55114C16.4589 1.55114 15.0462 3.06893 11.7667 3.12575C8.48726 3.18231 6.78607 1.56793 6.78607 1.56793C6.78607 1.56793 7.62285 0.255719 7.80157 -0.286108V-0.286366Z" fill="url(#paint23_linear_3_210)"/>
<path d="M11.6283 0.935451C13.4987 0.991494 15.9243 0.450183 15.6878 -0.0296617C15.5708 -0.267002 15.4582 -0.506149 15.3631 -0.736C14.9713 -1.68123 14.5333 -1.84264 14.4179 -2.3496C14.3024 -2.85656 13.9569 -2.81059 14.0491 -3.04122C14.1413 -3.27184 13.8184 -3.47923 13.8184 -3.47923C13.8184 -3.47923 14.7175 -3.0642 15.1095 -2.90279C15.5013 -2.74138 16.2621 -2.74138 17.046 -2.99499C16.3543 -3.80179 15.7089 -4.332 15.1095 -5.06984C14.5956 -5.70232 13.611 -6.03805 13.196 -6.08428C12.7554 -6.13335 12.2048 -6.13051 11.1211 -6.01507C10.0377 -5.89989 9.94549 -5.50785 9.71486 -4.90843C9.48423 -4.30901 9.27684 -2.69541 8.81584 -2.30337C8.35484 -1.91134 8.10122 -1.03558 7.80137 -0.297734C7.62627 0.133041 9.75799 0.879668 11.6283 0.93571V0.935451Z" fill="url(#paint24_linear_3_210)"/>
<path d="M14.1655 0.714644C13.8964 0.732464 12.5402 0.836284 11.6283 0.843257C10.9263 0.84868 10.3426 0.788507 9.86046 0.693726C9.62286 0.832669 11.6257 0.955083 11.0438 2.19034C10.6027 3.12704 6.78607 1.56793 6.78607 1.56793C6.78607 1.56793 8.48727 3.18231 11.7667 3.12575C15.0462 3.06919 16.4589 1.55114 16.4589 1.55114C16.4589 1.55114 13.8047 2.7864 13.1936 2.3613C12.6732 1.99922 12.8631 1.23607 14.1655 0.714644Z" fill="url(#paint25_linear_3_210)"/>
<path d="M13.1627 -0.0601231C11.8776 0.0501534 12.4889 -1.16134 12.1872 -3.24988L11.8285 -1.69258C12.2004 -0.505103 11.9078 0.102838 10.7624 -0.0330059C10.7624 -0.0330059 12.9184 0.892078 9.84296 0.704065C10.4093 0.829837 11.032 0.917903 11.6283 0.935723C12.4584 0.960516 13.398 0.867801 14.1655 0.714912C12.4618 0.658095 12.3381 0.368845 13.1627 -0.0598646V-0.0601231Z" fill="url(#paint26_linear_3_210)"/>
<path d="M15.0848 13.8071H8.74078V18.8059H15.0848V13.8071Z" fill="#36B9EF"/>
<path d="M13.2031 16.1678H10.6514V18.1985H13.2031V16.1678Z" fill="#F88839"/>
<path d="M11.1697 17.7125V17.2267H10.6514V16.7406H10.0612V17.7125H10.5796V18.1985H11.1025H11.1697H11.6493V17.7125H11.1697Z" fill="#062E6D"/>
<path d="M12.6556 17.7125V17.2267H13.174V16.7406H13.7641V17.7125H13.2458V18.1985H12.7228H12.6556H12.176V17.7125H12.6556Z" fill="#062E6D"/>
<path d="M12.1526 16.1678H11.6493V16.6278H12.1526V16.1678Z" fill="white"/>
<path d="M12.118 15.2045H11.6146V15.6645H12.118V15.2045Z" fill="white"/>
<path d="M12.118 14.2497H11.6146V15.2045H12.118V14.2497Z" fill="#062E6D"/>
<path d="M12.6041 15.6645V15.2045H12.118V15.6645H11.6147V15.2045H11.1286V15.6645H10.0612V16.1678H13.741V15.6645H12.6041Z" fill="#062E6D"/>
</g>
</g>
<defs>
<linearGradient id="paint0_linear_3_210" x1="-4.20184" y1="3.59807" x2="28.202" y2="3.59807" gradientUnits="userSpaceOnUse">
<stop stop-color="#CDFDF5"/>
<stop offset="0.99" stop-color="#CCEEFF"/>
</linearGradient>
<linearGradient id="paint1_linear_3_210" x1="11.9997" y1="13.6281" x2="11.9997" y2="-12.6037" gradientUnits="userSpaceOnUse">
<stop stop-color="#44EDD6"/>
<stop offset="0.07" stop-color="#38C9C2"/>
<stop offset="0.18" stop-color="#299AA8"/>
<stop offset="0.29" stop-color="#1C7393"/>
<stop offset="0.39" stop-color="#125582"/>
<stop offset="0.49" stop-color="#0B3F76"/>
<stop offset="0.59" stop-color="#07326F"/>
<stop offset="0.69" stop-color="#062E6D"/>
</linearGradient>
<linearGradient id="paint2_linear_3_210" x1="11.8423" y1="24.5822" x2="11.8423" y2="3.14953" gradientUnits="userSpaceOnUse">
<stop stop-color="#44EDD6"/>
<stop offset="0.07" stop-color="#38C9C2"/>
<stop offset="0.18" stop-color="#299AA8"/>
<stop offset="0.29" stop-color="#1C7393"/>
<stop offset="0.39" stop-color="#125582"/>
<stop offset="0.49" stop-color="#0B3F76"/>
<stop offset="0.59" stop-color="#07326F"/>
<stop offset="0.69" stop-color="#062E6D"/>
</linearGradient>
<linearGradient id="paint3_linear_3_210" x1="12" y1="10.7379" x2="12" y2="5.67297" gradientUnits="userSpaceOnUse">
<stop stop-color="white"/>
<stop offset="0.17" stop-color="#FBFDFE"/>
<stop offset="0.33" stop-color="#F0F9FD"/>
<stop offset="0.48" stop-color="#DEF1FA"/>
<stop offset="0.62" stop-color="#C5E6F7"/>
<stop offset="0.76" stop-color="#A4D9F3"/>
<stop offset="0.8" stop-color="#9AD5F2"/>
</linearGradient>
<linearGradient id="paint4_linear_3_210" x1="6.81378" y1="8.10369" x2="11.4238" y2="8.10369" gradientUnits="userSpaceOnUse">
<stop stop-color="white" stop-opacity="0"/>
<stop offset="0.26" stop-color="#FDFEFE" stop-opacity="0"/>
<stop offset="0.4" stop-color="#F6FBFE" stop-opacity="0.04"/>
<stop offset="0.51" stop-color="#EAF7FD" stop-opacity="0.1"/>
<stop offset="0.61" stop-color="#DAF2FC" stop-opacity="0.18"/>
<stop offset="0.69" stop-color="#C5EAFA" stop-opacity="0.29"/>
<stop offset="0.77" stop-color="#ABE1F8" stop-opacity="0.42"/>
<stop offset="0.85" stop-color="#8CD7F5" stop-opacity="0.57"/>
<stop offset="0.92" stop-color="#68CAF3" stop-opacity="0.75"/>
<stop offset="0.98" stop-color="#40BCEF" stop-opacity="0.95"/>
<stop offset="1" stop-color="#36B9EF"/>
</linearGradient>
<linearGradient id="paint5_linear_3_210" x1="6.98492" y1="8.01927" x2="11.3661" y2="8.01927" gradientUnits="userSpaceOnUse">
<stop stop-color="#36B9EF"/>
<stop offset="0.04" stop-color="#4DC1F0"/>
<stop offset="0.11" stop-color="#76CFF4"/>
<stop offset="0.19" stop-color="#9BDCF7"/>
<stop offset="0.27" stop-color="#BAE7F9"/>
<stop offset="0.36" stop-color="#D3EFFB"/>
<stop offset="0.46" stop-color="#E7F6FD"/>
<stop offset="0.58" stop-color="#F4FBFE"/>
<stop offset="0.73" stop-color="#FCFEFE"/>
<stop offset="1" stop-color="white"/>
</linearGradient>
<linearGradient id="paint6_linear_3_210" x1="16.8865" y1="8.10369" x2="12.2767" y2="8.10369" gradientUnits="userSpaceOnUse">
<stop stop-color="white" stop-opacity="0"/>
<stop offset="0.26" stop-color="#FDFEFE" stop-opacity="0"/>
<stop offset="0.4" stop-color="#F6FBFE" stop-opacity="0.04"/>
<stop offset="0.51" stop-color="#EAF7FD" stop-opacity="0.1"/>
<stop offset="0.61" stop-color="#DAF2FC" stop-opacity="0.18"/>
<stop offset="0.69" stop-color="#C5EAFA" stop-opacity="0.29"/>
<stop offset="0.77" stop-color="#ABE1F8" stop-opacity="0.42"/>
<stop offset="0.85" stop-color="#8CD7F5" stop-opacity="0.57"/>
<stop offset="0.92" stop-color="#68CAF3" stop-opacity="0.75"/>
<stop offset="0.98" stop-color="#40BCEF" stop-opacity="0.95"/>
<stop offset="1" stop-color="#36B9EF"/>
</linearGradient>
<linearGradient id="paint7_linear_3_210" x1="16.7029" y1="8.01927" x2="12.3217" y2="8.01927" gradientUnits="userSpaceOnUse">
<stop stop-color="#36B9EF"/>
<stop offset="0.04" stop-color="#4DC1F0"/>
<stop offset="0.11" stop-color="#76CFF4"/>
<stop offset="0.19" stop-color="#9BDCF7"/>
<stop offset="0.27" stop-color="#BAE7F9"/>
<stop offset="0.36" stop-color="#D3EFFB"/>
<stop offset="0.46" stop-color="#E7F6FD"/>
<stop offset="0.58" stop-color="#F4FBFE"/>
<stop offset="0.73" stop-color="#FCFEFE"/>
<stop offset="1" stop-color="white"/>
</linearGradient>
<radialGradient id="paint8_radial_3_210" cx="0" cy="0" r="1" gradientUnits="userSpaceOnUse" gradientTransform="translate(11.9126 14.3014) scale(8.67435 8.67414)">
<stop stop-color="#FFAA55"/>
<stop offset="0.35" stop-color="#FEAC54"/>
<stop offset="0.54" stop-color="#FEB454"/>
<stop offset="0.7" stop-color="#FDC254"/>
<stop offset="0.84" stop-color="#FCD654"/>
<stop offset="0.96" stop-color="#FBEF54"/>
<stop offset="1" stop-color="#FBF954"/>
</radialGradient>
<radialGradient id="paint9_radial_3_210" cx="0" cy="0" r="1" gradientUnits="userSpaceOnUse" gradientTransform="translate(11.9126 14.3017) scale(8.67435 8.67414)">
<stop stop-color="#FFB855"/>
<stop offset="0.37" stop-color="#FEB553"/>
<stop offset="0.57" stop-color="#FBAD4F"/>
<stop offset="0.74" stop-color="#F59F48"/>
<stop offset="0.89" stop-color="#EE8B3F"/>
<stop offset="1" stop-color="#E77735"/>
</radialGradient>
<linearGradient id="paint10_linear_3_210" x1="7.5123" y1="19.8736" x2="7.5123" y2="9.01666" gradientUnits="userSpaceOnUse">
<stop stop-color="#FF802C" stop-opacity="0"/>
<stop offset="0.16" stop-color="#FE7F2B" stop-opacity="0.01"/>
<stop offset="0.29" stop-color="#FD7D29" stop-opacity="0.06"/>
<stop offset="0.42" stop-color="#FC7A26" stop-opacity="0.13"/>
<stop offset="0.54" stop-color="#FA7521" stop-opacity="0.24"/>
<stop offset="0.65" stop-color="#F86F1B" stop-opacity="0.37"/>
<stop offset="0.76" stop-color="#F56814" stop-opacity="0.54"/>
<stop offset="0.87" stop-color="#F15F0B" stop-opacity="0.73"/>
<stop offset="0.98" stop-color="#ED5501" stop-opacity="0.95"/>
<stop offset="1" stop-color="#ED5400"/>
</linearGradient>
<linearGradient id="paint11_linear_3_210" x1="11.8371" y1="21.7857" x2="11.8371" y2="5.35867" gradientUnits="userSpaceOnUse">
<stop stop-color="#FF802C" stop-opacity="0"/>
<stop offset="0.16" stop-color="#FE7F2B" stop-opacity="0.01"/>
<stop offset="0.29" stop-color="#FD7D29" stop-opacity="0.06"/>
<stop offset="0.42" stop-color="#FC7A26" stop-opacity="0.13"/>
<stop offset="0.54" stop-color="#FA7521" stop-opacity="0.24"/>
<stop offset="0.65" stop-color="#F86F1B" stop-opacity="0.37"/>
<stop offset="0.76" stop-color="#F56814" stop-opacity="0.54"/>
<stop offset="0.87" stop-color="#F15F0B" stop-opacity="0.73"/>
<stop offset="0.98" stop-color="#ED5501" stop-opacity="0.95"/>
<stop offset="1" stop-color="#ED5400"/>
</linearGradient>
<linearGradient id="paint12_linear_3_210" x1="16.1928" y1="19.8736" x2="16.1928" y2="9.01666" gradientUnits="userSpaceOnUse">
<stop stop-color="#FF802C" stop-opacity="0"/>
<stop offset="0.16" stop-color="#FE7F2B" stop-opacity="0.01"/>
<stop offset="0.29" stop-color="#FD7D29" stop-opacity="0.06"/>
<stop offset="0.42" stop-color="#FC7A26" stop-opacity="0.13"/>
<stop offset="0.54" stop-color="#FA7521" stop-opacity="0.24"/>
<stop offset="0.65" stop-color="#F86F1B" stop-opacity="0.37"/>
<stop offset="0.76" stop-color="#F56814" stop-opacity="0.54"/>
<stop offset="0.87" stop-color="#F15F0B" stop-opacity="0.73"/>
<stop offset="0.98" stop-color="#ED5501" stop-opacity="0.95"/>
<stop offset="1" stop-color="#ED5400"/>
</linearGradient>
<linearGradient id="paint13_linear_3_210" x1="18.4508" y1="18.0511" x2="16.9596" y2="18.191" gradientUnits="userSpaceOnUse">
<stop offset="0.18" stop-color="#A6D5F2"/>
<stop offset="0.19" stop-color="#A7D5F2"/>
<stop offset="0.33" stop-color="#C6E4F6"/>
<stop offset="0.48" stop-color="#DFF0FA"/>
<stop offset="0.64" stop-color="#F1F8FC"/>
<stop offset="0.8" stop-color="#FBFDFE"/>
<stop offset="1" stop-color="white"/>
</linearGradient>
<linearGradient id="paint14_linear_3_210" x1="18.0327" y1="18.9552" x2="16.2388" y2="18.9552" gradientUnits="userSpaceOnUse">
<stop offset="0.18" stop-color="#A7D5F2"/>
<stop offset="0.33" stop-color="#C6E4F6"/>
<stop offset="0.48" stop-color="#DFF0FA"/>
<stop offset="0.63" stop-color="#F1F8FC"/>
<stop offset="0.8" stop-color="#FBFDFE"/>
<stop offset="1" stop-color="white"/>
</linearGradient>
<linearGradient id="paint15_linear_3_210" x1="17.4252" y1="20.5063" x2="14.7095" y2="19.8506" gradientUnits="userSpaceOnUse">
<stop offset="0.19" stop-color="#A6D5F2"/>
<stop offset="0.2" stop-color="#A7D5F2"/>
<stop offset="0.34" stop-color="#C6E4F6"/>
<stop offset="0.49" stop-color="#DFF0FA"/>
<stop offset="0.64" stop-color="#F1F8FC"/>
<stop offset="0.8" stop-color="#FBFDFE"/>
<stop offset="1" stop-color="white"/>
</linearGradient>
<linearGradient id="paint16_linear_3_210" x1="16.1838" y1="21.4598" x2="14.2019" y2="20.7041" gradientUnits="userSpaceOnUse">
<stop offset="0.21" stop-color="#A6D5F2"/>
<stop offset="0.22" stop-color="#A7D5F2"/>
<stop offset="0.36" stop-color="#C6E4F6"/>
<stop offset="0.5" stop-color="#DFF0FA"/>
<stop offset="0.65" stop-color="#F1F8FC"/>
<stop offset="0.81" stop-color="#FBFDFE"/>
<stop offset="1" stop-color="white"/>
</linearGradient>
<linearGradient id="paint17_linear_3_210" x1="5.15794" y1="18.0511" x2="6.64916" y2="18.191" gradientUnits="userSpaceOnUse">
<stop offset="0.21" stop-color="#A6D5F2"/>
<stop offset="0.22" stop-color="#A7D5F2"/>
<stop offset="0.36" stop-color="#C6E4F6"/>
<stop offset="0.5" stop-color="#DFF0FA"/>
<stop offset="0.65" stop-color="#F1F8FC"/>
<stop offset="0.81" stop-color="#FBFDFE"/>
<stop offset="1" stop-color="white"/>
</linearGradient>
<linearGradient id="paint18_linear_3_210" x1="5.57626" y1="18.9552" x2="7.37017" y2="18.9552" gradientUnits="userSpaceOnUse">
<stop offset="0.21" stop-color="#A6D5F2"/>
<stop offset="0.22" stop-color="#A7D5F2"/>
<stop offset="0.36" stop-color="#C6E4F6"/>
<stop offset="0.5" stop-color="#DFF0FA"/>
<stop offset="0.65" stop-color="#F1F8FC"/>
<stop offset="0.81" stop-color="#FBFDFE"/>
<stop offset="1" stop-color="white"/>
</linearGradient>
<linearGradient id="paint19_linear_3_210" x1="6.18359" y1="20.5063" x2="8.8995" y2="19.8506" gradientUnits="userSpaceOnUse">
<stop offset="0.19" stop-color="#A6D5F2"/>
<stop offset="0.2" stop-color="#A7D5F2"/>
<stop offset="0.34" stop-color="#C6E4F6"/>
<stop offset="0.49" stop-color="#DFF0FA"/>
<stop offset="0.64" stop-color="#F1F8FC"/>
<stop offset="0.8" stop-color="#FBFDFE"/>
<stop offset="1" stop-color="white"/>
</linearGradient>
<linearGradient id="paint20_linear_3_210" x1="7.39494" y1="21.3685" x2="9.4216" y2="20.7426" gradientUnits="userSpaceOnUse">
<stop offset="0.21" stop-color="#A6D5F2"/>
<stop offset="0.22" stop-color="#A7D5F2"/>
<stop offset="0.36" stop-color="#C6E4F6"/>
<stop offset="0.5" stop-color="#DFF0FA"/>
<stop offset="0.65" stop-color="#F1F8FC"/>
<stop offset="0.81" stop-color="#FBFDFE"/>
<stop offset="1" stop-color="white"/>
</linearGradient>
<linearGradient id="paint21_linear_3_210" x1="11.8475" y1="6.66596" x2="11.8475" y2="-6.138" gradientUnits="userSpaceOnUse">
<stop stop-color="#34C2BE"/>
<stop offset="0.03" stop-color="#2DACB2"/>
<stop offset="0.1" stop-color="#21869D"/>
<stop offset="0.16" stop-color="#17668B"/>
<stop offset="0.23" stop-color="#0F4D7E"/>
<stop offset="0.3" stop-color="#0A3B74"/>
<stop offset="0.38" stop-color="#07316E"/>
<stop offset="0.47" stop-color="#062E6D"/>
</linearGradient>
<linearGradient id="paint22_linear_3_210" x1="11.8472" y1="6.68506" x2="11.8472" y2="4.10041" gradientUnits="userSpaceOnUse">
<stop stop-color="#82FFDC"/>
<stop offset="0.99" stop-color="#4A85BA"/>
</linearGradient>
<linearGradient id="paint23_linear_3_210" x1="11.6223" y1="3.12704" x2="11.6223" y2="-0.332336" gradientUnits="userSpaceOnUse">
<stop stop-color="#5DF0C7"/>
<stop offset="0.99" stop-color="#4A85BA"/>
</linearGradient>
<linearGradient id="paint24_linear_3_210" x1="12.4186" y1="1.34195" x2="12.4186" y2="-4.14605" gradientUnits="userSpaceOnUse">
<stop stop-color="#34C2BE"/>
<stop offset="0.03" stop-color="#2DACB2"/>
<stop offset="0.1" stop-color="#21869D"/>
<stop offset="0.16" stop-color="#17668B"/>
<stop offset="0.23" stop-color="#0F4D7E"/>
<stop offset="0.3" stop-color="#0A3B74"/>
<stop offset="0.38" stop-color="#07316E"/>
<stop offset="0.47" stop-color="#062E6D"/>
</linearGradient>
<linearGradient id="paint25_linear_3_210" x1="11.7174" y1="3.27063" x2="11.3421" y2="-3.48723" gradientUnits="userSpaceOnUse">
<stop stop-color="#82FFDC"/>
<stop offset="0.99" stop-color="#4A85BA"/>
</linearGradient>
<linearGradient id="paint26_linear_3_210" x1="12.0041" y1="3.71769" x2="12.0041" y2="-6.43318" gradientUnits="userSpaceOnUse">
<stop stop-color="#5DF0C7"/>
<stop offset="0.99" stop-color="#4A85BA"/>
</linearGradient>
<clipPath id="clip0_3_210">
<path d="M0 12C0 5.37258 5.37258 0 12 0V0C18.6274 0 24 5.37258 24 12V12C24 18.6274 18.6274 24 12 24V24C5.37258 24 0 18.6274 0 12V12Z" fill="white"/>
</clipPath>
<clipPath id="clip1_3_210">
<rect width="31.2" height="31.2" fill="white" transform="translate(-3.59998 -6.60001)"/>
</clipPath>
</defs>
</svg>
