<svg width="256" height="207" viewBox="0 0 256 207" fill="none" xmlns="http://www.w3.org/2000/svg">
<path d="M246.961 43.8684C235.6 19.8035 212.425 3.1425 186.304 1.17347C173.505 -0.0204149 160.298 2.15353 148.759 7.98933C141.011 11.8472 134.114 17.2019 128.318 23.5812C116.363 9.97618 99.4719 1.06656 81.2409 0.148868C42.9152 -2.16763 9.87943 22.7437 1.82908 61.4025C-3.0615 84.5586 2.27287 108.739 12.8617 129.107C23.4328 149.198 38.8589 167.062 58.9272 177.557C72.9332 184.4 86.0605 167.044 75.8178 154.909C72.5515 151.238 69.5426 147.336 66.8 143.166C64.2526 139.299 61.9627 135.237 59.8857 131.076C54.1165 119.208 49.8117 105.844 48.9596 92.6842C48.4537 84.318 49.5454 77.1102 53.007 69.831C56.2822 63.0419 61.5899 57.2061 68.5574 54.4619C79.3948 50.3368 90.7026 52.5552 98.9393 61.4649C104.291 66.9977 106.741 74.7402 109.475 81.8857C109.679 82.4025 109.901 82.9014 110.132 83.3914C115.573 100.24 140.514 100.667 145.173 81.5026C145.315 80.8522 145.457 80.1929 145.608 79.5247C145.635 79.4178 145.662 79.3198 145.688 79.2128C145.715 79.1059 145.733 78.999 145.759 78.8832C146.159 77.1725 146.62 75.4619 147.215 73.8671C149.07 68.7262 152.159 63.7636 155.869 59.977C161.461 54.2659 168.588 50.8179 176.39 51.5841C180.757 51.8336 185.683 53.0275 189.233 54.9608C209.15 65.8039 207.073 94.2968 198.535 113.069C192.535 126.22 182.931 137.223 172.28 146.73C169.644 149.073 166.635 151.657 163.91 153.84C151.422 163.578 148.227 182.012 158.097 195.225C168.685 209.748 189.774 210.452 201.89 197.533C204.269 195.172 206.567 192.721 208.831 190.253C231.686 164.629 252.455 126.594 255.686 91.5437C257.017 75.159 254.115 58.7831 246.952 43.8684H246.961Z" fill="url(#paint0_radial_793_4549)"/>
<defs>
<radialGradient id="paint0_radial_793_4549" cx="0" cy="0" r="1" gradientUnits="userSpaceOnUse" gradientTransform="translate(176.281 182.058) rotate(-131.427) scale(212.489 322.519)">
<stop offset="0.0001" stop-color="#33FFCC"/>
<stop offset="1" stop-color="#0F7FFF"/>
</radialGradient>
</defs>
</svg>
