<svg width="30" height="30" viewBox="0 0 30 30" fill="none" xmlns="http://www.w3.org/2000/svg">
<circle cx="15" cy="15" r="15" fill="#F08B24" fill-opacity="0.1"/>
<g clip-path="url(#clip0_6_262)">
<path d="M24.0114 5.75L16.1982 11.5312L17.6512 8.12414L24.0114 5.75Z" fill="url(#paint0_linear_6_262)"/>
<path d="M24.0114 5.75L16.1982 11.5312L17.6512 8.12414L24.0114 5.75Z" fill="url(#paint1_linear_6_262)"/>
<path d="M5.98926 5.75L13.7328 11.5851L12.3495 8.12413L5.98926 5.75Z" fill="url(#paint2_linear_6_262)"/>
<path d="M5.98926 5.75L13.7328 11.5851L12.3495 8.12413L5.98926 5.75Z" fill="url(#paint3_linear_6_262)"/>
<path d="M21.1984 19.1545L19.1196 22.3303L23.5709 23.5559L24.8461 19.2239L21.1984 19.1545Z" fill="url(#paint4_linear_6_262)"/>
<path d="M21.1984 19.1545L19.1196 22.3303L23.5709 23.5559L24.8461 19.2239L21.1984 19.1545Z" fill="url(#paint5_linear_6_262)"/>
<path d="M5.1626 19.2239L6.43 23.5559L10.8737 22.3303L8.80253 19.1545L5.1626 19.2239Z" fill="url(#paint6_linear_6_262)"/>
<path d="M5.1626 19.2239L6.43 23.5559L10.8737 22.3303L8.80253 19.1545L5.1626 19.2239Z" fill="url(#paint7_linear_6_262)"/>
<path d="M10.6339 13.7897L9.39746 15.6551L13.8025 15.8555L13.6557 11.1149L10.6339 13.7897Z" fill="url(#paint8_linear_6_262)"/>
<path d="M10.6339 13.7897L9.39746 15.6551L13.8025 15.8555L13.6557 11.1149L10.6339 13.7897Z" fill="url(#paint9_linear_6_262)"/>
<path d="M19.3667 13.7897L16.2987 11.061L16.1982 15.8556L20.6032 15.6551L19.3667 13.7897Z" fill="url(#paint10_linear_6_262)"/>
<path d="M10.8735 22.3304L13.5397 21.0431L11.2445 19.2548L10.8735 22.3304Z" fill="#E27625"/>
<path d="M16.4604 21.0431L19.1189 22.3304L18.7557 19.2548L16.4604 21.0431Z" fill="#E27625"/>
<path d="M19.1189 22.3303L16.4604 21.043L16.6768 22.7697L16.6536 23.5019L19.1189 22.3303Z" fill="url(#paint11_linear_6_262)"/>
<path d="M10.8735 22.3303L13.3465 23.5019L13.3311 22.7697L13.5397 21.043L10.8735 22.3303Z" fill="url(#paint12_radial_6_262)"/>
<path d="M13.3929 18.1137L11.1827 17.4663L12.7437 16.7494L13.3929 18.1137Z" fill="url(#paint13_linear_6_262)"/>
<path d="M16.6084 18.1137L17.2576 16.7494L18.8264 17.4663L16.6084 18.1137Z" fill="url(#paint14_linear_6_262)"/>
<path d="M10.8734 22.3303L11.2598 19.1545L8.80225 19.2239L10.8734 22.3303Z" fill="#CC6228"/>
<path d="M18.7402 19.1545L19.1189 22.3303L21.1978 19.2239L18.7402 19.1545Z" fill="#CC6228"/>
<path d="M20.6032 15.6549L16.1982 15.8553L16.6078 18.1139L17.257 16.7495L18.8258 17.4664L20.6032 15.6549Z" fill="#CC6228"/>
<path d="M11.1826 17.4664L12.7437 16.7495L13.3929 18.1139L13.8025 15.8553L9.39746 15.6549L11.1826 17.4664Z" fill="#CC6228"/>
<path d="M9.39746 15.6549L11.2445 19.2547L11.1826 17.4664L9.39746 15.6549Z" fill="#E27525"/>
<path d="M18.8259 17.4664L18.7563 19.2547L20.6034 15.6549L18.8259 17.4664Z" fill="#E27525"/>
<path d="M13.8027 15.8555L13.3931 18.114L13.9108 20.781L14.0268 17.2661L13.8027 15.8555Z" fill="#E27525"/>
<path d="M16.1974 15.8555L15.981 17.2584L16.0892 20.781L16.6069 18.114L16.1974 15.8555Z" fill="#E27525"/>
<path d="M16.6071 18.1138L16.0894 20.7808L16.4603 21.0429L18.7556 19.2546L18.8251 17.4663L16.6071 18.1138Z" fill="url(#paint15_linear_6_262)"/>
<path d="M11.1827 17.4663L11.2445 19.2546L13.5397 21.0429L13.9107 20.7808L13.3929 18.1138L11.1827 17.4663Z" fill="url(#paint16_linear_6_262)"/>
<path d="M16.6542 23.502L16.6773 22.7698L16.4764 22.6002L13.5243 22.6002L13.3311 22.7698L13.3465 23.502L10.8735 22.3304L11.7391 23.0395L13.4934 24.2497L16.4996 24.2497L18.2616 23.0395L19.1194 22.3304L16.6542 23.502Z" fill="#C0AC9D"/>
<path d="M16.46 21.0432L16.089 20.7812L13.9097 20.7812L13.5388 21.0432L13.3301 22.7699L13.5233 22.6003L16.4754 22.6003L16.6764 22.7699L16.46 21.0432Z" fill="url(#paint17_linear_6_262)"/>
<path d="M24.3431 11.9089L25 8.71767L24.0108 5.75L16.4604 11.3385L19.3662 13.7897L23.4698 14.9845L24.374 13.9285L23.9799 13.6432L24.6058 13.0728L24.1267 12.7028L24.7527 12.2249L24.3431 11.9089Z" fill="url(#paint18_linear_6_262)"/>
<path d="M5 8.71788L5.66462 11.9091L5.23957 12.2251L5.87328 12.703L5.39413 13.0731L6.02011 13.6434L5.62597 13.9287L6.53017 14.9847L10.6338 13.7899L13.5395 11.3387L5.9892 5.75021L5 8.71788Z" fill="url(#paint19_linear_6_262)"/>
<path d="M23.4705 14.9846L19.3669 13.7899L20.6034 15.6553L18.7563 19.255L21.1984 19.2242L24.8461 19.2242L23.4705 14.9846Z" fill="url(#paint20_radial_6_262)"/>
<path d="M23.4705 14.9846L19.3669 13.7899L20.6034 15.6553L18.7563 19.255L21.1984 19.2242L24.8461 19.2242L23.4705 14.9846Z" fill="url(#paint21_linear_6_262)"/>
<path d="M10.6341 13.7899L6.53047 14.9846L5.1626 19.2242L8.80254 19.2242L11.2446 19.255L9.3976 15.6553L10.6341 13.7899Z" fill="url(#paint22_radial_6_262)"/>
<path d="M10.6341 13.7899L6.53047 14.9846L5.1626 19.2242L8.80254 19.2242L11.2446 19.255L9.3976 15.6553L10.6341 13.7899Z" fill="url(#paint23_linear_6_262)"/>
<path d="M16.1992 15.8557L16.4619 11.3386L17.652 8.12433L12.3506 8.12433L13.5407 11.3386L13.8034 15.8557L13.9039 17.274L13.9117 20.7813L16.091 20.7813L16.0987 17.274L16.1992 15.8557Z" fill="url(#paint24_linear_6_262)"/>
<path d="M16.1992 15.8557L16.4619 11.3386L17.652 8.12433L12.3506 8.12433L13.5407 11.3386L13.8034 15.8557L13.9039 17.274L13.9117 20.7813L16.091 20.7813L16.0987 17.274L16.1992 15.8557Z" fill="url(#paint25_linear_6_262)" fill-opacity="0.6"/>
</g>
<defs>
<linearGradient id="paint0_linear_6_262" x1="17.1751" y1="11.126" x2="27.2155" y2="0.927415" gradientUnits="userSpaceOnUse">
<stop stop-color="#E17726"/>
<stop offset="1" stop-color="#E17726" stop-opacity="0"/>
</linearGradient>
<linearGradient id="paint1_linear_6_262" x1="20.1744" y1="11.1669" x2="17.5312" y2="2.65502" gradientUnits="userSpaceOnUse">
<stop stop-color="#E27625"/>
<stop offset="1" stop-color="#FCA15C" stop-opacity="0.83"/>
</linearGradient>
<linearGradient id="paint2_linear_6_262" x1="14.4878" y1="11.6003" x2="4.60542" y2="1.24365" gradientUnits="userSpaceOnUse">
<stop stop-color="#E27625"/>
<stop offset="1" stop-color="#E27625" stop-opacity="0"/>
</linearGradient>
<linearGradient id="paint3_linear_6_262" x1="9.93005" y1="11.2175" x2="7.22192" y2="2.6541" gradientUnits="userSpaceOnUse">
<stop stop-color="#E27625"/>
<stop offset="1" stop-color="#FCA15C" stop-opacity="0.83"/>
</linearGradient>
<linearGradient id="paint4_linear_6_262" x1="18.1242" y1="19.1901" x2="23.7391" y2="27.1949" gradientUnits="userSpaceOnUse">
<stop offset="0.256463" stop-color="#E27625"/>
<stop offset="1" stop-color="#E27625" stop-opacity="0"/>
</linearGradient>
<linearGradient id="paint5_linear_6_262" x1="22.0339" y1="23.2786" x2="19.9579" y2="16.8429" gradientUnits="userSpaceOnUse">
<stop stop-color="#E27625"/>
<stop offset="1" stop-color="#FCA15C" stop-opacity="0.83"/>
</linearGradient>
<linearGradient id="paint6_linear_6_262" x1="11.3245" y1="19.1901" x2="4.05114" y2="25.831" gradientUnits="userSpaceOnUse">
<stop offset="0.247205" stop-color="#E27625"/>
<stop offset="1" stop-color="#E27625" stop-opacity="0"/>
</linearGradient>
<linearGradient id="paint7_linear_6_262" x1="8.06903" y1="23.2786" x2="5.98854" y2="16.8462" gradientUnits="userSpaceOnUse">
<stop stop-color="#E27625"/>
<stop offset="1" stop-color="#FCA15C" stop-opacity="0.83"/>
</linearGradient>
<linearGradient id="paint8_linear_6_262" x1="10.2177" y1="15.0789" x2="18.677" y2="8.12174" gradientUnits="userSpaceOnUse">
<stop stop-color="#E27625"/>
<stop offset="1" stop-color="#E27625" stop-opacity="0"/>
</linearGradient>
<linearGradient id="paint9_linear_6_262" x1="11.6392" y1="15.5568" x2="8.76845" y2="9.20056" gradientUnits="userSpaceOnUse">
<stop stop-color="#E27625"/>
<stop offset="1" stop-color="#FCA15C" stop-opacity="0.83"/>
</linearGradient>
<linearGradient id="paint10_linear_6_262" x1="18.44" y1="15.5535" x2="15.5148" y2="9.14973" gradientUnits="userSpaceOnUse">
<stop stop-color="#E27625"/>
<stop offset="1" stop-color="#FCA15C" stop-opacity="0.83"/>
</linearGradient>
<linearGradient id="paint11_linear_6_262" x1="17.7897" y1="21.043" x2="20.6521" y2="27.4464" gradientUnits="userSpaceOnUse">
<stop stop-color="#D5BFB2"/>
<stop offset="1" stop-color="#D5BFB2" stop-opacity="0"/>
</linearGradient>
<radialGradient id="paint12_radial_6_262" cx="0" cy="0" r="1" gradientUnits="userSpaceOnUse" gradientTransform="translate(13.5112 20.509) rotate(116.98) scale(12.5928 13.6543)">
<stop stop-color="#D5BFB2"/>
<stop offset="1" stop-color="#D5BFB2" stop-opacity="0"/>
</radialGradient>
<linearGradient id="paint13_linear_6_262" x1="12.2878" y1="16.7494" x2="12.2878" y2="18.1137" gradientUnits="userSpaceOnUse">
<stop stop-color="#041836"/>
<stop offset="1" stop-color="#17396B"/>
</linearGradient>
<linearGradient id="paint14_linear_6_262" x1="17.7174" y1="16.7494" x2="17.7174" y2="18.1137" gradientUnits="userSpaceOnUse">
<stop stop-color="#041836"/>
<stop offset="1" stop-color="#17396B"/>
</linearGradient>
<linearGradient id="paint15_linear_6_262" x1="18.5183" y1="17.4508" x2="11.482" y2="25.5148" gradientUnits="userSpaceOnUse">
<stop offset="0.200338" stop-color="#F5841F"/>
<stop offset="1" stop-color="#F5841F" stop-opacity="0"/>
</linearGradient>
<linearGradient id="paint16_linear_6_262" x1="11.1666" y1="17.4508" x2="16.7798" y2="24.8033" gradientUnits="userSpaceOnUse">
<stop offset="0.32798" stop-color="#F5841F"/>
<stop offset="1" stop-color="#F5841F" stop-opacity="0"/>
</linearGradient>
<linearGradient id="paint17_linear_6_262" x1="15.0032" y1="20.7812" x2="15.0032" y2="22.7699" gradientUnits="userSpaceOnUse">
<stop stop-color="#041836"/>
<stop offset="1" stop-color="#17396B"/>
</linearGradient>
<linearGradient id="paint18_linear_6_262" x1="18.9241" y1="13.012" x2="24.9712" y2="8.83055" gradientUnits="userSpaceOnUse">
<stop stop-color="#592B0D"/>
<stop offset="1" stop-color="#763E1A"/>
</linearGradient>
<linearGradient id="paint19_linear_6_262" x1="12.9416" y1="11.7254" x2="5.41488" y2="7.67256" gradientUnits="userSpaceOnUse">
<stop stop-color="#592B0D"/>
<stop offset="1" stop-color="#763E1A"/>
</linearGradient>
<radialGradient id="paint20_radial_6_262" cx="0" cy="0" r="1" gradientUnits="userSpaceOnUse" gradientTransform="translate(20.1692 16.19) rotate(11.6894) scale(8.80836 9.81509)">
<stop offset="0.263819" stop-color="#F5841F"/>
<stop offset="1" stop-color="#F5841F" stop-opacity="0"/>
</radialGradient>
<linearGradient id="paint21_linear_6_262" x1="21.8555" y1="18.9106" x2="18.9454" y2="11.1842" gradientUnits="userSpaceOnUse">
<stop stop-color="#E27625"/>
<stop offset="1" stop-color="#FCA15C" stop-opacity="0.83"/>
</linearGradient>
<radialGradient id="paint22_radial_6_262" cx="0" cy="0" r="1" gradientUnits="userSpaceOnUse" gradientTransform="translate(11.878 19.1902) rotate(-159.818) scale(15.5826 17.3415)">
<stop offset="0.299865" stop-color="#F5841F"/>
<stop offset="0.567167" stop-color="#F5841F" stop-opacity="0"/>
</radialGradient>
<linearGradient id="paint23_linear_6_262" x1="8.25779" y1="18.9106" x2="5.34497" y2="11.1866" gradientUnits="userSpaceOnUse">
<stop stop-color="#E27625"/>
<stop offset="1" stop-color="#FCA15C" stop-opacity="0.83"/>
</linearGradient>
<linearGradient id="paint24_linear_6_262" x1="14.9617" y1="8.12186" x2="14.9617" y2="33.5788" gradientUnits="userSpaceOnUse">
<stop offset="0.267932" stop-color="#F5841F"/>
<stop offset="1" stop-color="#FFC796" stop-opacity="0.89"/>
</linearGradient>
<linearGradient id="paint25_linear_6_262" x1="14.9926" y1="20.7813" x2="14.9926" y2="8.1171" gradientUnits="userSpaceOnUse">
<stop stop-color="#FFCF52" stop-opacity="0"/>
<stop offset="1" stop-color="#CB690B"/>
</linearGradient>
<clipPath id="clip0_6_262">
<rect width="24" height="24" fill="white" transform="translate(3 3)"/>
</clipPath>
</defs>
</svg>
