<svg width="310" height="76" viewBox="0 0 310 76" fill="none" xmlns="http://www.w3.org/2000/svg">
<path fill-rule="evenodd" clip-rule="evenodd" d="M40.8242 16.8043C44.5094 16.9904 47.9254 18.7388 50.3893 21.4179C51.545 20.2013 52.9023 19.177 54.4171 18.4245C56.8139 17.2155 59.5533 16.7684 62.2038 17.0138C67.6224 17.4219 72.4209 20.8626 74.7731 25.8243C76.2525 28.8925 76.852 32.2607 76.5781 35.6298L76.5778 35.6329C75.9138 42.8145 71.6512 50.5768 66.9754 55.7987L66.9727 55.8017C66.5118 56.3019 66.043 56.8016 65.5549 57.283C62.9752 60.0191 58.4804 59.8776 56.2174 56.7865C54.1136 53.9793 54.7997 50.072 57.4526 48.0096C58.0012 47.5713 58.6094 47.0517 59.1432 46.5799C61.2936 44.6671 63.2156 42.4681 64.4141 39.8521C65.2658 37.9853 65.7922 35.6395 65.6134 33.5031C65.4348 31.3708 64.56 29.4823 62.644 28.4433C61.9655 28.0763 61.0063 27.8425 60.1494 27.7932L60.138 27.7925C58.6587 27.647 57.2892 28.2954 56.1942 29.4098C55.4683 30.1474 54.8622 31.117 54.4974 32.1227L54.4961 32.1264C54.3805 32.432 54.2903 32.7655 54.2101 33.1071C54.2089 33.1121 54.2077 33.1181 54.2054 33.1299C54.2034 33.1401 54.2002 33.1563 54.1962 33.1734C54.1925 33.1891 54.1887 33.2034 54.1858 33.214C54.1841 33.2205 54.1827 33.2255 54.1816 33.2298C54.1808 33.2327 54.1802 33.2352 54.1796 33.2377C54.149 33.3699 54.1201 33.5017 54.0918 33.6326L54.0902 33.6399C53.0735 37.8112 47.6266 37.7121 46.4244 34.0619C46.3772 33.9632 46.3322 33.8613 46.2903 33.7555L46.2892 33.7527C46.2227 33.5794 46.1574 33.4058 46.0923 33.2327C45.6028 31.931 45.1229 30.6548 44.2069 29.7108L44.2025 29.7063C42.6092 27.9889 40.4332 27.5612 38.3318 28.3581C36.997 28.8802 35.965 30.0019 35.3214 31.3302C34.6426 32.7523 34.4263 34.1645 34.5259 35.82C34.6952 38.4394 35.5575 41.1105 36.7194 43.4922C37.1363 44.3257 37.5969 45.1392 38.1078 45.9114C38.6572 46.7447 39.2617 47.5255 39.9165 48.2594L39.9214 48.2649C42.1845 50.9364 39.2937 54.8241 36.1453 53.292L36.1383 53.2886C31.993 51.128 28.818 47.4594 26.6484 43.3514L26.6478 43.3502C24.4717 39.1804 23.3671 34.2134 24.378 29.4422C26.0448 21.4708 32.8885 16.3287 40.8242 16.8043Z" fill="url(#paint0_radial_2198_56684)"/>
<path d="M94.9187 32H99.7187C100.639 32 101.439 32.1067 102.119 32.32C102.799 32.5333 103.359 32.8333 103.799 33.22C104.252 33.5933 104.585 34.0467 104.799 34.58C105.012 35.1 105.119 35.6733 105.119 36.3C105.119 36.9267 105.012 37.5067 104.799 38.04C104.585 38.56 104.252 39.0133 103.799 39.4C103.359 39.7733 102.799 40.0667 102.119 40.28C101.439 40.4933 100.639 40.6 99.7187 40.6H96.7987V46H94.9187V32ZM99.6187 38.96C100.285 38.96 100.845 38.9 101.299 38.78C101.765 38.6467 102.139 38.4667 102.419 38.24C102.712 38.0133 102.919 37.7333 103.039 37.4C103.172 37.0667 103.239 36.7 103.239 36.3C103.239 35.9 103.172 35.5333 103.039 35.2C102.919 34.8667 102.712 34.5867 102.419 34.36C102.139 34.1333 101.765 33.96 101.299 33.84C100.845 33.7067 100.285 33.64 99.6187 33.64H96.7987V38.96H99.6187ZM111.829 46.2C111.149 46.2 110.502 46.0933 109.889 45.88C109.276 45.6533 108.736 45.32 108.269 44.88C107.802 44.4267 107.429 43.86 107.149 43.18C106.869 42.5 106.729 41.7067 106.729 40.8V40.4C106.729 39.5467 106.869 38.7933 107.149 38.14C107.429 37.4867 107.802 36.9467 108.269 36.52C108.736 36.08 109.276 35.7533 109.889 35.54C110.502 35.3133 111.149 35.2 111.829 35.2C112.509 35.2 113.156 35.3133 113.769 35.54C114.382 35.7533 114.922 36.08 115.389 36.52C115.856 36.9467 116.229 37.4867 116.509 38.14C116.789 38.7933 116.929 39.5467 116.929 40.4V40.8C116.929 41.7067 116.789 42.5 116.509 43.18C116.229 43.86 115.856 44.4267 115.389 44.88C114.922 45.32 114.382 45.6533 113.769 45.88C113.156 46.0933 112.509 46.2 111.829 46.2ZM111.829 44.6C112.229 44.6 112.629 44.5333 113.029 44.4C113.429 44.2533 113.782 44.0333 114.089 43.74C114.396 43.4333 114.642 43.04 114.829 42.56C115.029 42.08 115.129 41.4933 115.129 40.8V40.4C115.129 39.76 115.029 39.2133 114.829 38.76C114.642 38.3067 114.396 37.9333 114.089 37.64C113.782 37.3467 113.429 37.1333 113.029 37C112.629 36.8667 112.229 36.8 111.829 36.8C111.429 36.8 111.029 36.8667 110.629 37C110.229 37.1333 109.876 37.3467 109.569 37.64C109.262 37.9333 109.009 38.3067 108.809 38.76C108.622 39.2133 108.529 39.76 108.529 40.4V40.8C108.529 41.4933 108.622 42.08 108.809 42.56C109.009 43.04 109.262 43.4333 109.569 43.74C109.876 44.0333 110.229 44.2533 110.629 44.4C111.029 44.5333 111.429 44.6 111.829 44.6ZM118.226 35.4H120.146L122.186 43.6L124.946 35.4H126.506L129.366 43.6L131.386 35.4H133.226L130.326 46H128.566L125.686 37.8L122.886 46H121.126L118.226 35.4ZM139.622 46.2C138.942 46.2 138.295 46.0933 137.682 45.88C137.069 45.6667 136.529 45.34 136.062 44.9C135.595 44.4467 135.222 43.88 134.942 43.2C134.662 42.52 134.522 41.72 134.522 40.8V40.4C134.522 39.52 134.655 38.76 134.922 38.12C135.189 37.4667 135.542 36.9267 135.982 36.5C136.435 36.06 136.955 35.7333 137.542 35.52C138.142 35.3067 138.769 35.2 139.422 35.2C140.982 35.2 142.189 35.6267 143.042 36.48C143.895 37.3333 144.322 38.54 144.322 40.1V41.22H136.282C136.282 41.8467 136.382 42.3733 136.582 42.8C136.782 43.2267 137.042 43.5733 137.362 43.84C137.682 44.1067 138.035 44.3 138.422 44.42C138.822 44.54 139.222 44.6 139.622 44.6C140.422 44.6 141.035 44.4667 141.462 44.2C141.902 43.9333 142.215 43.5667 142.402 43.1H144.122C144.015 43.6067 143.822 44.0533 143.542 44.44C143.275 44.8267 142.942 45.1533 142.542 45.42C142.155 45.6733 141.709 45.8667 141.202 46C140.709 46.1333 140.182 46.2 139.622 46.2ZM139.522 36.8C139.109 36.8 138.709 36.86 138.322 36.98C137.935 37.0867 137.589 37.2667 137.282 37.52C136.989 37.76 136.749 38.0667 136.562 38.44C136.375 38.8133 136.282 39.26 136.282 39.78H142.662C142.649 39.2333 142.555 38.7733 142.382 38.4C142.222 38.0133 142.002 37.7067 141.722 37.48C141.442 37.24 141.109 37.0667 140.722 36.96C140.349 36.8533 139.949 36.8 139.522 36.8ZM146.823 35.4H148.463V37.4C148.69 36.7733 149.063 36.2533 149.583 35.84C150.117 35.4133 150.763 35.2 151.523 35.2C151.79 35.2 152.003 35.2133 152.163 35.24C152.337 35.2667 152.49 35.3 152.623 35.34V36.98C152.45 36.9133 152.277 36.8667 152.103 36.84C151.943 36.8133 151.717 36.8 151.423 36.8C151.023 36.8 150.65 36.8733 150.303 37.02C149.957 37.1667 149.657 37.3733 149.403 37.64C149.15 37.8933 148.95 38.2067 148.803 38.58C148.657 38.9533 148.583 39.36 148.583 39.8V46H146.823V35.4ZM158.821 46.2C158.141 46.2 157.494 46.0933 156.881 45.88C156.268 45.6667 155.728 45.34 155.261 44.9C154.794 44.4467 154.421 43.88 154.141 43.2C153.861 42.52 153.721 41.72 153.721 40.8V40.4C153.721 39.52 153.854 38.76 154.121 38.12C154.388 37.4667 154.741 36.9267 155.181 36.5C155.634 36.06 156.154 35.7333 156.741 35.52C157.341 35.3067 157.968 35.2 158.621 35.2C160.181 35.2 161.388 35.6267 162.241 36.48C163.094 37.3333 163.521 38.54 163.521 40.1V41.22H155.481C155.481 41.8467 155.581 42.3733 155.781 42.8C155.981 43.2267 156.241 43.5733 156.561 43.84C156.881 44.1067 157.234 44.3 157.621 44.42C158.021 44.54 158.421 44.6 158.821 44.6C159.621 44.6 160.234 44.4667 160.661 44.2C161.101 43.9333 161.414 43.5667 161.601 43.1H163.321C163.214 43.6067 163.021 44.0533 162.741 44.44C162.474 44.8267 162.141 45.1533 161.741 45.42C161.354 45.6733 160.908 45.8667 160.401 46C159.908 46.1333 159.381 46.2 158.821 46.2ZM158.721 36.8C158.308 36.8 157.908 36.86 157.521 36.98C157.134 37.0867 156.788 37.2667 156.481 37.52C156.188 37.76 155.948 38.0667 155.761 38.44C155.574 38.8133 155.481 39.26 155.481 39.78H161.861C161.848 39.2333 161.754 38.7733 161.581 38.4C161.421 38.0133 161.201 37.7067 160.921 37.48C160.641 37.24 160.308 37.0667 159.921 36.96C159.548 36.8533 159.148 36.8 158.721 36.8ZM169.723 46.2C169.069 46.2 168.469 46.0867 167.923 45.86C167.389 45.6333 166.929 45.3 166.543 44.86C166.156 44.4067 165.856 43.8467 165.643 43.18C165.429 42.5 165.323 41.7067 165.323 40.8V40.4C165.323 39.56 165.429 38.82 165.643 38.18C165.869 37.5267 166.176 36.98 166.563 36.54C166.949 36.1 167.409 35.7667 167.943 35.54C168.489 35.3133 169.083 35.2 169.723 35.2C170.576 35.2 171.316 35.3867 171.943 35.76C172.583 36.1333 173.056 36.6467 173.363 37.3V32H175.123V46H173.483V44C173.216 44.6533 172.749 45.1867 172.083 45.6C171.416 46 170.629 46.2 169.723 46.2ZM170.123 44.64C170.603 44.64 171.043 44.56 171.443 44.4C171.843 44.24 172.183 44.02 172.463 43.74C172.743 43.46 172.963 43.12 173.123 42.72C173.283 42.32 173.363 41.88 173.363 41.4V39.8C173.363 39.3733 173.283 38.9733 173.123 38.6C172.963 38.2267 172.743 37.9067 172.463 37.64C172.183 37.36 171.843 37.1467 171.443 37C171.043 36.84 170.603 36.76 170.123 36.76C169.696 36.76 169.296 36.84 168.923 37C168.549 37.16 168.223 37.4 167.943 37.72C167.676 38.0267 167.463 38.4067 167.303 38.86C167.156 39.3133 167.083 39.8267 167.083 40.4V40.8C167.083 41.4267 167.156 41.98 167.303 42.46C167.463 42.94 167.676 43.34 167.943 43.66C168.223 43.98 168.549 44.2267 168.923 44.4C169.296 44.56 169.696 44.64 170.123 44.64ZM188.727 46.2C187.821 46.2 187.034 46 186.367 45.6C185.701 45.1867 185.234 44.6533 184.967 44V46H183.327V32H185.087V37.3C185.394 36.6467 185.861 36.1333 186.487 35.76C187.127 35.3867 187.874 35.2 188.727 35.2C190.047 35.2 191.107 35.64 191.907 36.52C192.721 37.3867 193.127 38.68 193.127 40.4V40.8C193.127 41.7067 193.021 42.5 192.807 43.18C192.594 43.8467 192.294 44.4067 191.907 44.86C191.521 45.3 191.054 45.6333 190.507 45.86C189.974 46.0867 189.381 46.2 188.727 46.2ZM188.327 44.64C188.754 44.64 189.154 44.56 189.527 44.4C189.901 44.2267 190.221 43.98 190.487 43.66C190.767 43.34 190.981 42.94 191.127 42.46C191.287 41.98 191.367 41.4267 191.367 40.8V40.4C191.367 39.8267 191.287 39.3133 191.127 38.86C190.981 38.4067 190.767 38.0267 190.487 37.72C190.221 37.4 189.901 37.16 189.527 37C189.154 36.84 188.754 36.76 188.327 36.76C187.847 36.76 187.407 36.84 187.007 37C186.607 37.1467 186.267 37.36 185.987 37.64C185.707 37.9067 185.487 38.2267 185.327 38.6C185.167 38.9733 185.087 39.3733 185.087 39.8V41.4C185.087 41.88 185.167 42.32 185.327 42.72C185.487 43.12 185.707 43.46 185.987 43.74C186.267 44.02 186.607 44.24 187.007 44.4C187.407 44.56 187.847 44.64 188.327 44.64ZM196.641 50.2C196.441 50.2 196.241 50.18 196.041 50.14V48.54C196.241 48.58 196.441 48.6 196.641 48.6C196.841 48.6 197.015 48.5667 197.161 48.5C197.308 48.4333 197.448 48.3067 197.581 48.12C197.715 47.9333 197.855 47.6667 198.001 47.32C198.161 46.9867 198.341 46.5467 198.541 46L194.041 35.4H196.001L199.441 44L202.561 35.4H204.441L200.441 46C200.161 46.7467 199.895 47.3867 199.641 47.92C199.388 48.4533 199.115 48.8867 198.821 49.22C198.541 49.5667 198.228 49.8133 197.881 49.96C197.535 50.12 197.121 50.2 196.641 50.2ZM211.433 32H214.433L218.693 39.88L222.933 32H225.833V46H222.833V37.1L219.533 43.2H217.733L214.433 37.1V46H211.433V32ZM233.03 46.24C232.31 46.24 231.624 46.1333 230.97 45.92C230.33 45.6933 229.77 45.3533 229.29 44.9C228.81 44.4467 228.43 43.88 228.15 43.2C227.87 42.52 227.73 41.72 227.73 40.8V40.4C227.73 39.5333 227.87 38.7733 228.15 38.12C228.43 37.4667 228.81 36.92 229.29 36.48C229.77 36.04 230.33 35.7133 230.97 35.5C231.624 35.2733 232.31 35.16 233.03 35.16C233.75 35.16 234.43 35.2733 235.07 35.5C235.71 35.7133 236.27 36.04 236.75 36.48C237.244 36.92 237.63 37.4667 237.91 38.12C238.19 38.7733 238.33 39.5333 238.33 40.4V40.8C238.33 41.7067 238.19 42.5 237.91 43.18C237.63 43.86 237.244 44.4267 236.75 44.88C236.27 45.3333 235.71 45.6733 235.07 45.9C234.43 46.1267 233.75 46.24 233.03 46.24ZM233.03 44C233.777 44 234.397 43.7333 234.89 43.2C235.397 42.6667 235.65 41.8667 235.65 40.8V40.4C235.65 39.4267 235.397 38.6867 234.89 38.18C234.397 37.66 233.777 37.4 233.03 37.4C232.27 37.4 231.644 37.66 231.15 38.18C230.657 38.6867 230.41 39.4267 230.41 40.4V40.8C230.41 41.88 230.657 42.6867 231.15 43.22C231.644 43.74 232.27 44 233.03 44ZM240.023 35.4H242.463V36.96C242.556 36.7467 242.689 36.5333 242.863 36.32C243.036 36.0933 243.243 35.9 243.483 35.74C243.723 35.5667 243.983 35.4267 244.263 35.32C244.556 35.2133 244.876 35.16 245.223 35.16C245.476 35.16 245.689 35.1733 245.863 35.2C246.049 35.2267 246.169 35.2533 246.223 35.28V37.62C246.089 37.5667 245.916 37.52 245.703 37.48C245.503 37.4267 245.229 37.4 244.883 37.4C244.483 37.4 244.143 37.4667 243.863 37.6C243.583 37.7333 243.349 37.9133 243.163 38.14C242.989 38.3533 242.863 38.6067 242.783 38.9C242.703 39.1933 242.663 39.5 242.663 39.82V46H240.023V35.4ZM250.196 46.24C249.622 46.24 249.116 46.16 248.676 46C248.236 45.8267 247.862 45.5933 247.556 45.3C247.249 44.9933 247.016 44.64 246.856 44.24C246.696 43.8267 246.616 43.38 246.616 42.9C246.616 40.7667 247.882 39.7 250.416 39.7H253.576V39.2C253.576 38.5067 253.416 38.02 253.096 37.74C252.789 37.46 252.296 37.32 251.616 37.32C251.016 37.32 250.582 37.4267 250.316 37.64C250.049 37.84 249.896 38.0933 249.856 38.4H247.216C247.242 37.9467 247.356 37.52 247.556 37.12C247.769 36.72 248.062 36.38 248.436 36.1C248.822 35.8067 249.289 35.58 249.836 35.42C250.382 35.2467 251.009 35.16 251.716 35.16C252.396 35.16 253.009 35.2333 253.556 35.38C254.116 35.5267 254.589 35.7667 254.976 36.1C255.376 36.42 255.682 36.84 255.896 37.36C256.109 37.88 256.216 38.5067 256.216 39.24V43.3C256.216 43.86 256.222 44.3533 256.236 44.78C256.262 45.1933 256.302 45.6 256.356 46H253.896C253.842 45.7067 253.809 45.4867 253.796 45.34C253.796 45.18 253.796 44.9467 253.796 44.64C253.502 45.0667 253.056 45.44 252.456 45.76C251.869 46.08 251.116 46.24 250.196 46.24ZM251.016 44.2C251.336 44.2 251.649 44.16 251.956 44.08C252.262 43.9867 252.536 43.8533 252.776 43.68C253.016 43.4933 253.209 43.26 253.356 42.98C253.502 42.7 253.576 42.3733 253.576 42V41.5H250.916C250.409 41.5 250.009 41.62 249.716 41.86C249.436 42.0867 249.296 42.4 249.296 42.8C249.296 43.2267 249.442 43.5667 249.736 43.82C250.029 44.0733 250.456 44.2 251.016 44.2ZM262.12 46.12C261.506 46.12 260.98 46.0667 260.54 45.96C260.1 45.84 259.733 45.64 259.44 45.36C259.16 45.08 258.953 44.7067 258.82 44.24C258.686 43.76 258.62 43.1667 258.62 42.46V32H261.26V42.14C261.26 42.82 261.36 43.28 261.56 43.52C261.76 43.76 262.146 43.88 262.72 43.88C262.866 43.88 262.993 43.88 263.1 43.88C263.206 43.8667 263.313 43.8533 263.42 43.84V46.06C263.313 46.0867 263.12 46.1 262.84 46.1C262.56 46.1133 262.32 46.12 262.12 46.12ZM265.321 35.4H267.961V46H265.321V35.4ZM266.641 34.4C266.174 34.4 265.788 34.2533 265.481 33.96C265.188 33.6533 265.041 33.2667 265.041 32.8C265.041 32.3333 265.188 31.9533 265.481 31.66C265.788 31.3533 266.174 31.2 266.641 31.2C267.108 31.2 267.488 31.3533 267.781 31.66C268.088 31.9533 268.241 32.3333 268.241 32.8C268.241 33.2667 268.088 33.6533 267.781 33.96C267.488 34.2533 267.108 34.4 266.641 34.4ZM274.87 46.24C274.004 46.24 273.27 46.1467 272.67 45.96C272.084 45.7733 271.604 45.5267 271.23 45.22C270.87 44.9133 270.597 44.56 270.41 44.16C270.224 43.76 270.11 43.34 270.07 42.9H272.71C272.777 43.2467 272.984 43.5333 273.33 43.76C273.677 43.9733 274.19 44.08 274.87 44.08C275.644 44.08 276.197 43.9733 276.53 43.76C276.864 43.5467 277.03 43.2733 277.03 42.94C277.03 42.7667 276.99 42.62 276.91 42.5C276.83 42.3667 276.69 42.2467 276.49 42.14C276.304 42.0333 276.044 41.94 275.71 41.86C275.377 41.78 274.957 41.7 274.45 41.62C273.877 41.54 273.344 41.4267 272.85 41.28C272.357 41.1333 271.924 40.9333 271.55 40.68C271.19 40.4267 270.904 40.1133 270.69 39.74C270.477 39.3533 270.37 38.8867 270.37 38.34C270.37 37.9 270.47 37.4867 270.67 37.1C270.87 36.7133 271.164 36.38 271.55 36.1C271.937 35.8067 272.41 35.58 272.97 35.42C273.53 35.2467 274.164 35.16 274.87 35.16C275.63 35.16 276.277 35.2533 276.81 35.44C277.357 35.6267 277.804 35.88 278.15 36.2C278.497 36.5067 278.757 36.86 278.93 37.26C279.104 37.66 279.217 38.0733 279.27 38.5H276.63C276.524 38.1133 276.317 37.82 276.01 37.62C275.704 37.42 275.324 37.32 274.87 37.32C274.204 37.32 273.724 37.4267 273.43 37.64C273.15 37.84 273.01 38.0933 273.01 38.4C273.01 38.56 273.044 38.7 273.11 38.82C273.177 38.94 273.297 39.0467 273.47 39.14C273.657 39.2333 273.904 39.32 274.21 39.4C274.53 39.4667 274.93 39.5333 275.41 39.6C276.01 39.68 276.564 39.8 277.07 39.96C277.59 40.1067 278.044 40.3067 278.43 40.56C278.817 40.8133 279.117 41.1333 279.33 41.52C279.557 41.9067 279.67 42.3667 279.67 42.9C279.67 43.38 279.57 43.8267 279.37 44.24C279.17 44.64 278.87 44.9933 278.47 45.3C278.07 45.5933 277.57 45.8267 276.97 46C276.37 46.16 275.67 46.24 274.87 46.24Z" fill="#68738D"/>
<defs>
<radialGradient id="paint0_radial_2198_56684" cx="0" cy="0" r="1" gradientUnits="userSpaceOnUse" gradientTransform="translate(60.048 56.3583) rotate(-125.216) scale(45.6431 69.305)">
<stop offset="0.0001" stop-color="#09FFD0"/>
<stop offset="1" stop-color="#009EFF"/>
</radialGradient>
</defs>
</svg>
