<svg id="Layer_1" data-name="Layer 1" xmlns="http://www.w3.org/2000/svg" xmlns:xlink="http://www.w3.org/1999/xlink" viewBox="0 0 76 76"><defs><style>.cls-1,.cls-2{fill-rule:evenodd;}.cls-1{fill:url(#radial-gradient);}.cls-2{fill:url(#radial-gradient-2);}</style><radialGradient id="radial-gradient" cx="-102.79" cy="289.75" r="1" gradientTransform="matrix(-26.32, -37.29, -56.62, 39.97, 13747.87, -15356.65)" gradientUnits="userSpaceOnUse"><stop offset="0" stop-color="#09ffd0"/><stop offset="1" stop-color="#009eff"/></radialGradient><radialGradient id="radial-gradient-2" cx="-102.79" cy="289.75" r="1" gradientTransform="matrix(-26.32, -37.29, -56.62, 39.97, 13747.87, -15356.65)" gradientUnits="userSpaceOnUse"><stop offset="0" stop-color="#00ffce"/><stop offset="1" stop-color="#56beff"/></radialGradient></defs><path class="cls-1" d="M28.5,16.8a14.1,14.1,0,0,1,9.57,4.62A14.18,14.18,0,0,1,49.88,17a15.34,15.34,0,0,1,12.57,8.81,19,19,0,0,1,1.81,9.81h0c-.67,7.18-4.93,14.95-9.61,20.17h0c-.46.5-.93,1-1.42,1.48a6.08,6.08,0,0,1-9.33-.49A6.34,6.34,0,0,1,45.13,48c.55-.44,1.16-1,1.69-1.43a20.76,20.76,0,0,0,5.27-6.73,13.28,13.28,0,0,0,1.2-6.35,6,6,0,0,0-3-5.06,6.45,6.45,0,0,0-2.49-.65h0a4.91,4.91,0,0,0-4,1.62,7.76,7.76,0,0,0-1.69,2.71h0a8.7,8.7,0,0,0-.28,1v.12h0l-.09.39h0a4,4,0,0,1-7.67.42l-.13-.3h0c-.07-.17-.13-.34-.2-.52a9.93,9.93,0,0,0-1.88-3.52h0A5.19,5.19,0,0,0,26,28.36a5.81,5.81,0,0,0-3,3,8.81,8.81,0,0,0-.8,4.49,21,21,0,0,0,2.2,7.67,23,23,0,0,0,1.39,2.42,19.82,19.82,0,0,0,1.81,2.35h0a3.21,3.21,0,0,1-3.78,5h0a23.18,23.18,0,0,1-9.49-9.94h0a21,21,0,0,1-2.27-13.91A15.61,15.61,0,0,1,28.5,16.8Z"/><path class="cls-2" d="M28.5,16.8a14.1,14.1,0,0,1,9.57,4.62A14.18,14.18,0,0,1,49.88,17a15.34,15.34,0,0,1,12.57,8.81,19,19,0,0,1,1.81,9.81h0c-.67,7.18-4.93,14.95-9.61,20.17h0c-.46.5-.93,1-1.42,1.48a6.08,6.08,0,0,1-9.33-.49A6.34,6.34,0,0,1,45.13,48c.55-.44,1.16-1,1.69-1.43a20.76,20.76,0,0,0,5.27-6.73,13.28,13.28,0,0,0,1.2-6.35,6,6,0,0,0-3-5.06,6.45,6.45,0,0,0-2.49-.65h0a4.91,4.91,0,0,0-4,1.62,7.76,7.76,0,0,0-1.69,2.71h0a8.7,8.7,0,0,0-.28,1v.12h0l-.09.39h0a4,4,0,0,1-7.67.42l-.13-.3h0c-.07-.17-.13-.34-.2-.52a9.93,9.93,0,0,0-1.88-3.52h0A5.19,5.19,0,0,0,26,28.36a5.81,5.81,0,0,0-3,3,8.81,8.81,0,0,0-.8,4.49,21,21,0,0,0,2.2,7.67,23,23,0,0,0,1.39,2.42,19.82,19.82,0,0,0,1.81,2.35h0a3.21,3.21,0,0,1-3.78,5h0a23.18,23.18,0,0,1-9.49-9.94h0a21,21,0,0,1-2.27-13.91A15.61,15.61,0,0,1,28.5,16.8Z"/></svg>