<?xml version="1.0" encoding="utf-8"?>
<!-- Generator: Adobe Illustrator 25.2.3, SVG Export Plug-In . SVG Version: 6.00 Build 0)  -->
<svg version="1.1" id="Moralis-Logo" xmlns="http://www.w3.org/2000/svg" xmlns:xlink="http://www.w3.org/1999/xlink" x="0px"
	 y="0px" viewBox="0 0 311.8 311.8" style="enable-background:new 0 0 311.8 311.8;" xml:space="preserve">
<style type="text/css">
	.st0{fill:#041836;}
	.st1{fill:none;}
	.st2{fill:#FFFFFF;}
	.st3{fill:#B7E803;}
</style>
<circle class="st0" cx="155.9" cy="155.9" r="155.9"/>
<polygon class="st1" points="114.9,213.8 114.9,213.8 114.9,213.8 "/>
<path class="st0" d="M239.7,224L239.7,224c-0.4,0.4-0.7,0.8-1.1,1.3C239,224.9,239.3,224.5,239.7,224z"/>
<polygon class="st0" points="114.9,213.8 114.9,213.8 114.9,213.8 "/>
<path class="st2" d="M266.5,143.7c-0.8-36.2-30.8-64.8-67-64c-16.3,0.4-32,6.8-43.8,18.1c-12.1-11.6-28.2-18.1-45-18.1
	c-35.7,0-64.7,28.9-65.6,64.8v0.5c0,27.4,10,51.7,19,68.4c3.8,7,8.1,13.8,12.8,20.3c1.8,2.4,3.2,4.4,4.3,5.7l1.3,1.6l0.4,0.5
	l0.1,0.1l0.1,0.1l0,0l0,0c7.5,8.7,20.6,9.7,29.3,2.3c0.1-0.1,0.2-0.2,0.3-0.3c8.7-7.8,9.6-21.1,2-29.9l0,0l0,0l0,0l-0.1-0.2
	l-0.8-0.9c-0.7-0.9-1.8-2.3-3.1-4.1c-3.6-5-6.9-10.2-9.8-15.6c-7.3-13.4-13.8-30.4-13.8-47.6c0.3-13,11.2-23.3,24.2-23
	c12.7,0.3,22.8,10.6,23,23.3c0.1,3.2,0.9,6.3,2.3,9.2c4.2,10.8,16.4,16.2,27.2,12c8-3.1,13.3-10.8,13.4-19.4v-2.8
	c0.5-13,11.4-23.2,24.5-22.8c12.4,0.4,22.3,10.4,22.8,22.8c-0.1,13.8-4.5,27.4-9.5,38.2c-2,4.3-4.2,8.5-6.7,12.5
	c-0.9,1.5-1.6,2.6-2.1,3.2c-0.2,0.4-0.4,0.6-0.5,0.7l-0.1,0.1l-0.2,0.3c7.2-9.1,20.3-10.7,29.4-3.5c8.5,6.7,10.5,18.8,4.6,27.9
	l0.1,0.1l0,0V224l0.1-0.1l0.3-0.4c0.2-0.4,0.6-0.8,1-1.4c0.8-1.2,1.8-2.8,3.1-4.8c3.3-5.4,6.3-11.1,9-16.8
	c6.4-13.8,13.4-33.8,13.4-56.1L266.5,143.7L266.5,143.7z"/>
<path class="st3" d="M222,191.6c-11.6-0.1-21,9.3-21.1,20.9c-0.1,11.6,9.3,21,20.9,21.1c6.6,0,12.9-3.1,16.9-8.3
	c0.3-0.4,0.6-0.9,1-1.3l0,0c6.3-9.7,3.5-22.7-6.2-28.9C230.1,192.8,226.1,191.6,222,191.6z"/>
</svg>
